<svg width="720" height="510" viewBox="0 0 720 510" fill="none" xmlns="http://www.w3.org/2000/svg">
<g clip-path="url(#clip0_39_29)">
<path d="M258.192 110.016C255.744 110.016 253.296 110.448 251.136 111.312C248.832 99.9365 240.912 90.5765 230.4 86.1125C230.832 82.9445 230.976 79.6325 230.976 76.3205C230.976 34.1285 196.848 0.000488281 154.656 0.000488281C116.496 0.000488281 84.8161 27.9365 79.2001 64.5125C76.0321 63.7925 72.8641 63.5045 69.5521 63.5045C44.9281 63.5045 24.9121 83.5205 24.9121 108.145C24.9121 132.769 44.9281 152.785 69.5521 152.785H258.192C270 152.785 279.504 143.281 279.504 131.473C279.504 119.521 269.856 110.016 258.192 110.016Z" fill="#ECFFDD"/>
<path d="M385.92 363.457V410.113H322.272V363.457H344.736V385.921C344.736 391.105 348.912 395.281 354.096 395.281C359.28 395.281 363.456 391.105 363.456 385.921V363.457H385.92Z" fill="#42444F"/>
<path d="M322.272 363.457H344.736V372.961L322.272 370.369V363.457Z" fill="#2C2C30"/>
<path d="M385.92 363.457V377.713L363.312 375.121V363.457H385.92Z" fill="#2C2C30"/>
<path d="M430.128 409.681H277.92V416.017H430.128V409.681Z" fill="#1E7AF4"/>
<path d="M570.096 142.561V351.505C570.096 361.009 562.32 368.785 552.816 368.785H155.232C145.728 368.785 137.952 361.009 137.952 351.505V142.561C137.952 133.057 145.728 125.281 155.232 125.281H552.816C562.32 125.281 570.096 133.057 570.096 142.561Z" fill="#D3D2D7"/>
<path d="M570.096 147.025H138.096V343.297H570.096V147.025Z" fill="#F2F2F2"/>
<path d="M360.144 355.825C360.144 359.137 357.408 361.872 354.096 361.872C350.784 361.872 348.048 359.137 348.048 355.825C348.048 352.513 350.784 349.776 354.096 349.776C357.408 349.776 360.144 352.513 360.144 355.825Z" fill="#42444F"/>
<path d="M472.896 187.344L453.312 404.64C452.88 409.824 447.984 414.144 442.368 414.144H261.792C256.176 414.144 252.144 409.824 252.576 404.64L272.16 187.344C272.592 182.16 277.488 177.84 283.104 177.84H463.68C469.152 177.84 473.328 182.16 472.896 187.344Z" fill="#1E7AF4"/>
<path d="M452.448 174.096V404.064C452.448 409.68 447.984 414.144 442.368 414.144H261.792C256.176 414.144 251.712 409.68 251.712 404.064V174.096C251.712 168.48 256.176 164.016 261.792 164.016H442.368C447.984 164.016 452.448 168.48 452.448 174.096Z" fill="#B2D4FF"/>
<path d="M435.744 174.24C435.744 176.256 437.472 177.984 439.488 177.984C441.504 177.984 443.232 176.256 443.232 174.24C443.232 172.224 441.504 170.496 439.488 170.496C437.472 170.496 435.744 172.224 435.744 174.24Z" fill="#B7FF7F"/>
<path d="M425.52 174.24C425.52 176.256 427.248 177.984 429.264 177.984C431.28 177.984 433.008 176.256 433.008 174.24C433.008 172.224 431.28 170.496 429.264 170.496C427.104 170.496 425.52 172.224 425.52 174.24Z" fill="white"/>
<path d="M418.896 177.984C420.964 177.984 422.64 176.308 422.64 174.24C422.64 172.173 420.964 170.496 418.896 170.496C416.828 170.496 415.152 172.173 415.152 174.24C415.152 176.308 416.828 177.984 418.896 177.984Z" fill="#287FF4"/>
<path d="M452.448 296.352H251.712V358.272H452.448V296.352Z" fill="#C8D0D9"/>
<path d="M441.792 184.752H430.992V189.216H441.792V184.752Z" fill="#B3BDC7"/>
<path d="M428.832 184.752H418.032V189.216H428.832V184.752Z" fill="#B3BDC7"/>
<path d="M415.872 184.752H405.072V189.216H415.872V184.752Z" fill="#B3BDC7"/>
<path d="M402.912 184.752H392.112V189.216H402.912V184.752Z" fill="#B3BDC7"/>
<path d="M265.03 191.002C264.934 191.002 264.854 190.97 264.79 190.906C264.726 190.842 264.694 190.762 264.694 190.666C264.694 190.644 264.694 190.612 264.694 190.57C264.704 190.538 264.72 190.5 264.742 190.458L265.99 187.45L262.918 180.186C262.886 180.111 262.87 180.047 262.87 179.994C262.891 179.898 262.934 179.818 262.998 179.754C263.062 179.679 263.142 179.642 263.238 179.642H265.062C265.2 179.642 265.302 179.679 265.366 179.754C265.44 179.818 265.494 179.892 265.526 179.978L267.35 184.634L269.222 179.978C269.264 179.892 269.318 179.818 269.382 179.754C269.456 179.679 269.563 179.642 269.702 179.642H271.494C271.59 179.642 271.67 179.679 271.734 179.754C271.808 179.818 271.846 179.892 271.846 179.978C271.846 180.031 271.83 180.1 271.798 180.186L267.27 190.666C267.238 190.751 267.184 190.826 267.11 190.89C267.035 190.964 266.928 191.002 266.79 191.002H265.03ZM276.648 188.122C275.752 188.122 274.995 187.978 274.376 187.69C273.768 187.402 273.299 186.991 272.968 186.458C272.648 185.914 272.467 185.268 272.424 184.522C272.413 184.308 272.408 184.068 272.408 183.802C272.408 183.524 272.413 183.284 272.424 183.082C272.467 182.324 272.659 181.679 273 181.146C273.341 180.612 273.816 180.202 274.424 179.914C275.043 179.626 275.784 179.482 276.648 179.482C277.523 179.482 278.264 179.626 278.872 179.914C279.491 180.202 279.971 180.612 280.312 181.146C280.653 181.679 280.845 182.324 280.888 183.082C280.899 183.284 280.904 183.524 280.904 183.802C280.904 184.068 280.899 184.308 280.888 184.522C280.845 185.268 280.659 185.914 280.328 186.458C280.008 186.991 279.539 187.402 278.92 187.69C278.312 187.978 277.555 188.122 276.648 188.122ZM276.648 186.17C277.128 186.17 277.475 186.026 277.688 185.738C277.912 185.45 278.04 185.018 278.072 184.442C278.083 184.282 278.088 184.068 278.088 183.802C278.088 183.535 278.083 183.322 278.072 183.162C278.04 182.596 277.912 182.17 277.688 181.882C277.475 181.583 277.128 181.434 276.648 181.434C276.189 181.434 275.843 181.583 275.608 181.882C275.384 182.17 275.261 182.596 275.24 183.162C275.229 183.322 275.224 183.535 275.224 183.802C275.224 184.068 275.229 184.282 275.24 184.442C275.261 185.018 275.384 185.45 275.608 185.738C275.843 186.026 276.189 186.17 276.648 186.17ZM285.549 188.122C284.941 188.122 284.397 187.983 283.917 187.706C283.448 187.428 283.08 187.023 282.813 186.49C282.547 185.946 282.413 185.284 282.413 184.506V180.042C282.413 179.924 282.451 179.828 282.525 179.754C282.6 179.679 282.696 179.642 282.813 179.642H284.813C284.931 179.642 285.027 179.679 285.101 179.754C285.187 179.828 285.229 179.924 285.229 180.042V184.41C285.229 185.455 285.693 185.978 286.621 185.978C287.059 185.978 287.405 185.844 287.661 185.578C287.928 185.3 288.061 184.911 288.061 184.41V180.042C288.061 179.924 288.099 179.828 288.173 179.754C288.248 179.679 288.344 179.642 288.461 179.642H290.461C290.579 179.642 290.675 179.679 290.749 179.754C290.824 179.828 290.861 179.924 290.861 180.042V187.562C290.861 187.668 290.824 187.764 290.749 187.85C290.675 187.924 290.579 187.962 290.461 187.962H288.605C288.499 187.962 288.403 187.924 288.317 187.85C288.243 187.764 288.205 187.668 288.205 187.562V186.954C287.928 187.338 287.565 187.631 287.117 187.834C286.68 188.026 286.157 188.122 285.549 188.122ZM293.143 187.962C293.026 187.962 292.93 187.924 292.855 187.85C292.781 187.764 292.743 187.668 292.743 187.562V180.042C292.743 179.935 292.781 179.844 292.855 179.77C292.93 179.684 293.026 179.642 293.143 179.642H294.983C295.101 179.642 295.197 179.684 295.271 179.77C295.357 179.844 295.399 179.935 295.399 180.042V180.682C295.677 180.351 296.013 180.095 296.407 179.914C296.813 179.732 297.266 179.642 297.767 179.642H298.471C298.589 179.642 298.685 179.679 298.759 179.754C298.834 179.828 298.871 179.924 298.871 180.042V181.69C298.871 181.796 298.834 181.892 298.759 181.978C298.685 182.052 298.589 182.09 298.471 182.09H296.919C296.482 182.09 296.141 182.212 295.895 182.458C295.661 182.692 295.543 183.028 295.543 183.466V187.562C295.543 187.668 295.501 187.764 295.415 187.85C295.341 187.924 295.245 187.962 295.127 187.962H293.143ZM302.329 187.962C302.169 187.962 302.052 187.924 301.977 187.85C301.902 187.764 301.844 187.668 301.801 187.562L299.497 180.154C299.476 180.1 299.465 180.047 299.465 179.994C299.465 179.898 299.502 179.818 299.577 179.754C299.652 179.679 299.737 179.642 299.833 179.642H301.481C301.62 179.642 301.726 179.679 301.801 179.754C301.886 179.828 301.94 179.903 301.961 179.978L303.305 184.554L304.745 179.994C304.766 179.919 304.814 179.844 304.889 179.77C304.974 179.684 305.092 179.642 305.241 179.642H306.297C306.446 179.642 306.564 179.684 306.649 179.77C306.734 179.844 306.782 179.919 306.793 179.994L308.233 184.554L309.577 179.978C309.598 179.903 309.646 179.828 309.721 179.754C309.806 179.679 309.918 179.642 310.057 179.642H311.705C311.801 179.642 311.886 179.679 311.961 179.754C312.036 179.818 312.073 179.898 312.073 179.994C312.073 180.047 312.062 180.1 312.041 180.154L309.737 187.562C309.705 187.668 309.646 187.764 309.561 187.85C309.486 187.924 309.369 187.962 309.209 187.962H307.769C307.62 187.962 307.502 187.924 307.417 187.85C307.332 187.764 307.273 187.668 307.241 187.562L305.769 183.178L304.297 187.562C304.265 187.668 304.206 187.764 304.121 187.85C304.036 187.924 303.918 187.962 303.769 187.962H302.329ZM317.021 188.122C315.762 188.122 314.759 187.78 314.013 187.098C313.266 186.415 312.877 185.402 312.845 184.058C312.845 183.983 312.845 183.887 312.845 183.77C312.845 183.652 312.845 183.562 312.845 183.498C312.877 182.655 313.063 181.935 313.405 181.338C313.757 180.73 314.237 180.271 314.845 179.962C315.463 179.642 316.183 179.482 317.005 179.482C317.943 179.482 318.717 179.668 319.325 180.042C319.943 180.415 320.407 180.922 320.717 181.562C321.026 182.202 321.181 182.932 321.181 183.754V184.138C321.181 184.255 321.143 184.351 321.069 184.426C320.994 184.5 320.898 184.538 320.781 184.538H315.661C315.661 184.548 315.661 184.564 315.661 184.586C315.661 184.607 315.661 184.628 315.661 184.65C315.671 184.959 315.725 185.242 315.821 185.498C315.927 185.754 316.077 185.956 316.269 186.106C316.471 186.255 316.717 186.33 317.005 186.33C317.218 186.33 317.394 186.298 317.533 186.234C317.682 186.159 317.805 186.079 317.901 185.994C317.997 185.898 318.071 185.818 318.125 185.754C318.221 185.636 318.295 185.567 318.349 185.546C318.413 185.514 318.509 185.498 318.637 185.498H320.621C320.727 185.498 320.813 185.53 320.877 185.594C320.951 185.658 320.983 185.743 320.973 185.85C320.962 186.031 320.871 186.25 320.701 186.506C320.53 186.762 320.279 187.018 319.949 187.274C319.629 187.519 319.223 187.722 318.733 187.882C318.242 188.042 317.671 188.122 317.021 188.122ZM315.661 182.954H318.365V182.922C318.365 182.57 318.311 182.271 318.205 182.026C318.109 181.77 317.954 181.572 317.741 181.434C317.538 181.295 317.293 181.226 317.005 181.226C316.727 181.226 316.487 181.295 316.285 181.434C316.082 181.572 315.927 181.77 315.821 182.026C315.714 182.271 315.661 182.57 315.661 182.922V182.954ZM327.769 188.122C327.182 188.122 326.686 188.02 326.281 187.818C325.875 187.615 325.545 187.359 325.289 187.05V187.562C325.289 187.668 325.246 187.764 325.161 187.85C325.086 187.924 324.995 187.962 324.889 187.962H323.081C322.963 187.962 322.867 187.924 322.793 187.85C322.718 187.764 322.681 187.668 322.681 187.562V177.002C322.681 176.884 322.718 176.788 322.793 176.714C322.867 176.639 322.963 176.602 323.081 176.602H325.033C325.15 176.602 325.246 176.639 325.321 176.714C325.395 176.788 325.433 176.884 325.433 177.002V180.426C325.699 180.148 326.025 179.924 326.409 179.754C326.793 179.572 327.246 179.482 327.769 179.482C328.302 179.482 328.771 179.572 329.177 179.754C329.593 179.924 329.945 180.175 330.233 180.506C330.521 180.826 330.745 181.22 330.905 181.69C331.065 182.148 331.155 182.66 331.177 183.226C331.187 183.439 331.193 183.631 331.193 183.802C331.193 183.962 331.187 184.148 331.177 184.362C331.155 184.959 331.065 185.492 330.905 185.962C330.745 186.42 330.515 186.815 330.217 187.146C329.929 187.466 329.582 187.711 329.177 187.882C328.771 188.042 328.302 188.122 327.769 188.122ZM326.905 185.978C327.267 185.978 327.55 185.903 327.753 185.754C327.955 185.604 328.099 185.402 328.185 185.146C328.281 184.89 328.339 184.607 328.361 184.298C328.382 183.967 328.382 183.636 328.361 183.306C328.339 182.996 328.281 182.714 328.185 182.458C328.099 182.202 327.955 181.999 327.753 181.85C327.55 181.7 327.267 181.626 326.905 181.626C326.574 181.626 326.302 181.7 326.089 181.85C325.875 181.988 325.715 182.175 325.609 182.41C325.502 182.634 325.443 182.879 325.433 183.146C325.422 183.348 325.417 183.546 325.417 183.738C325.417 183.93 325.422 184.132 325.433 184.346C325.454 184.634 325.513 184.9 325.609 185.146C325.705 185.391 325.859 185.594 326.073 185.754C326.286 185.903 326.563 185.978 326.905 185.978ZM336.199 188.122C335.505 188.122 334.913 188.047 334.423 187.898C333.943 187.738 333.548 187.546 333.239 187.322C332.94 187.098 332.716 186.868 332.567 186.634C332.417 186.388 332.337 186.175 332.327 185.994C332.316 185.876 332.353 185.78 332.439 185.706C332.524 185.631 332.615 185.594 332.711 185.594H334.535C334.567 185.594 334.593 185.599 334.615 185.61C334.647 185.62 334.679 185.642 334.711 185.674C334.849 185.748 334.988 185.844 335.127 185.962C335.265 186.068 335.425 186.164 335.607 186.25C335.788 186.335 336.007 186.378 336.263 186.378C336.561 186.378 336.812 186.319 337.015 186.202C337.217 186.074 337.319 185.898 337.319 185.674C337.319 185.503 337.271 185.364 337.175 185.258C337.079 185.14 336.881 185.028 336.583 184.922C336.295 184.815 335.857 184.708 335.271 184.602C334.716 184.474 334.231 184.308 333.815 184.106C333.399 183.892 333.079 183.62 332.855 183.29C332.631 182.948 332.519 182.538 332.519 182.058C332.519 181.631 332.657 181.22 332.935 180.826C333.212 180.431 333.617 180.111 334.151 179.866C334.684 179.61 335.345 179.482 336.135 179.482C336.743 179.482 337.276 179.556 337.735 179.706C338.193 179.844 338.577 180.026 338.887 180.25C339.196 180.474 339.431 180.703 339.591 180.938C339.751 181.172 339.836 181.386 339.847 181.578C339.857 181.684 339.825 181.78 339.751 181.866C339.676 181.94 339.591 181.978 339.495 181.978H337.831C337.788 181.978 337.745 181.972 337.703 181.962C337.66 181.94 337.623 181.919 337.591 181.898C337.463 181.834 337.335 181.748 337.207 181.642C337.079 181.535 336.929 181.439 336.759 181.354C336.588 181.268 336.375 181.226 336.119 181.226C335.831 181.226 335.607 181.29 335.447 181.418C335.287 181.546 335.207 181.711 335.207 181.914C335.207 182.052 335.249 182.18 335.335 182.298C335.431 182.415 335.617 182.522 335.895 182.618C336.183 182.714 336.625 182.82 337.223 182.938C337.959 183.055 338.545 183.247 338.983 183.514C339.42 183.77 339.729 184.074 339.911 184.426C340.103 184.767 340.199 185.13 340.199 185.514C340.199 186.026 340.044 186.479 339.735 186.874C339.425 187.268 338.972 187.578 338.375 187.802C337.788 188.015 337.063 188.122 336.199 188.122ZM342.018 187.962C341.901 187.962 341.805 187.924 341.73 187.85C341.656 187.764 341.618 187.668 341.618 187.562V180.042C341.618 179.924 341.656 179.828 341.73 179.754C341.805 179.679 341.901 179.642 342.018 179.642H343.906C344.024 179.642 344.12 179.679 344.194 179.754C344.269 179.828 344.306 179.924 344.306 180.042V187.562C344.306 187.668 344.269 187.764 344.194 187.85C344.12 187.924 344.024 187.962 343.906 187.962H342.018ZM342.002 178.442C341.885 178.442 341.789 178.404 341.714 178.33C341.64 178.255 341.602 178.159 341.602 178.042V176.602C341.602 176.495 341.64 176.404 341.714 176.33C341.789 176.244 341.885 176.202 342.002 176.202H343.922C344.029 176.202 344.12 176.244 344.194 176.33C344.28 176.404 344.322 176.495 344.322 176.602V178.042C344.322 178.159 344.28 178.255 344.194 178.33C344.12 178.404 344.029 178.442 343.922 178.442H342.002ZM350.452 187.962C349.77 187.962 349.178 187.855 348.676 187.642C348.186 187.418 347.807 187.076 347.54 186.618C347.274 186.148 347.14 185.546 347.14 184.81V181.738H345.892C345.775 181.738 345.674 181.7 345.588 181.626C345.514 181.551 345.476 181.455 345.476 181.338V180.042C345.476 179.924 345.514 179.828 345.588 179.754C345.674 179.679 345.775 179.642 345.892 179.642H347.14V177.002C347.14 176.884 347.178 176.788 347.252 176.714C347.338 176.639 347.434 176.602 347.54 176.602H349.396C349.514 176.602 349.61 176.639 349.684 176.714C349.759 176.788 349.796 176.884 349.796 177.002V179.642H351.796C351.914 179.642 352.01 179.679 352.084 179.754C352.17 179.828 352.212 179.924 352.212 180.042V181.338C352.212 181.455 352.17 181.551 352.084 181.626C352.01 181.7 351.914 181.738 351.796 181.738H349.796V184.586C349.796 184.948 349.866 185.236 350.004 185.45C350.143 185.663 350.378 185.77 350.708 185.77H351.94C352.058 185.77 352.154 185.807 352.228 185.882C352.303 185.956 352.34 186.052 352.34 186.17V187.562C352.34 187.668 352.303 187.764 352.228 187.85C352.154 187.924 352.058 187.962 351.94 187.962H350.452ZM357.505 188.122C356.247 188.122 355.244 187.78 354.497 187.098C353.751 186.415 353.361 185.402 353.329 184.058C353.329 183.983 353.329 183.887 353.329 183.77C353.329 183.652 353.329 183.562 353.329 183.498C353.361 182.655 353.548 181.935 353.889 181.338C354.241 180.73 354.721 180.271 355.329 179.962C355.948 179.642 356.668 179.482 357.489 179.482C358.428 179.482 359.201 179.668 359.809 180.042C360.428 180.415 360.892 180.922 361.201 181.562C361.511 182.202 361.665 182.932 361.665 183.754V184.138C361.665 184.255 361.628 184.351 361.553 184.426C361.479 184.5 361.383 184.538 361.265 184.538H356.145C356.145 184.548 356.145 184.564 356.145 184.586C356.145 184.607 356.145 184.628 356.145 184.65C356.156 184.959 356.209 185.242 356.305 185.498C356.412 185.754 356.561 185.956 356.753 186.106C356.956 186.255 357.201 186.33 357.489 186.33C357.703 186.33 357.879 186.298 358.017 186.234C358.167 186.159 358.289 186.079 358.385 185.994C358.481 185.898 358.556 185.818 358.609 185.754C358.705 185.636 358.78 185.567 358.833 185.546C358.897 185.514 358.993 185.498 359.121 185.498H361.105C361.212 185.498 361.297 185.53 361.361 185.594C361.436 185.658 361.468 185.743 361.457 185.85C361.447 186.031 361.356 186.25 361.185 186.506C361.015 186.762 360.764 187.018 360.433 187.274C360.113 187.519 359.708 187.722 359.217 187.882C358.727 188.042 358.156 188.122 357.505 188.122ZM356.145 182.954H358.849V182.922C358.849 182.57 358.796 182.271 358.689 182.026C358.593 181.77 358.439 181.572 358.225 181.434C358.023 181.295 357.777 181.226 357.489 181.226C357.212 181.226 356.972 181.295 356.769 181.434C356.567 181.572 356.412 181.77 356.305 182.026C356.199 182.271 356.145 182.57 356.145 182.922V182.954Z" fill="#42444F"/>
<path d="M437.76 263.521H266.4C264.24 263.521 262.512 261.793 262.512 259.633V206.785C262.512 204.625 264.24 202.896 266.4 202.896H437.76C439.92 202.896 441.648 204.625 441.648 206.785V259.633C441.648 261.793 439.92 263.521 437.76 263.521Z" fill="white"/>
<path d="M426.384 226.224V243.361L434.88 234.865L426.384 226.224Z" fill="#1E7AF4"/>
<path d="M269.28 234.865L277.92 243.361V226.224L269.28 234.865Z" fill="#1E7AF4"/>
<path d="M441.648 268.417H309.456V271.585H441.648V268.417Z" fill="white"/>
<path d="M441.648 274.753H309.456V277.921H441.648V274.753Z" fill="white"/>
<path d="M399.024 281.233H309.456V284.401H399.024V281.233Z" fill="white"/>
<path d="M301.824 268.417H262.224V271.585H301.824V268.417Z" fill="#DFFFC5"/>
<path d="M301.824 274.896H262.224V278.065H301.824V274.896Z" fill="#DFFFC5"/>
<path d="M301.824 281.377H262.224V284.545H301.824V281.377Z" fill="#DFFFC5"/>
<path d="M287.136 287.857H262.224V291.025H287.136V287.857Z" fill="#DFFFC5"/>
<path d="M349.344 365.472H262.224V368.64H349.344V365.472Z" fill="#75B0FF"/>
<path d="M349.344 371.952H262.224V375.12H349.344V371.952Z" fill="#75B0FF"/>
<path d="M349.344 378.432H262.224V381.6H349.344V378.432Z" fill="#75B0FF"/>
<path d="M316.944 384.912H262.224V388.08H316.944V384.912Z" fill="#75B0FF"/>
<path d="M442.224 365.472H355.104V368.64H442.224V365.472Z" fill="white"/>
<path d="M441.072 371.952H355.104V375.12H441.072V371.952Z" fill="white"/>
<path d="M398.736 378.432H355.104V381.6H398.736V378.432Z" fill="white"/>
<path d="M299.376 351.792H264.672C263.232 351.792 262.08 350.64 262.08 349.2V304.129C262.08 302.689 263.232 301.536 264.672 301.536H299.376C300.816 301.536 301.968 302.689 301.968 304.129V349.2C301.968 350.64 300.816 351.792 299.376 351.792Z" fill="white"/>
<path d="M346.032 351.792H311.328C309.888 351.792 308.736 350.64 308.736 349.2V304.129C308.736 302.689 309.888 301.536 311.328 301.536H346.032C347.472 301.536 348.624 302.689 348.624 304.129V349.2C348.624 350.64 347.472 351.792 346.032 351.792Z" fill="white"/>
<path d="M392.688 351.792H357.984C356.544 351.792 355.392 350.64 355.392 349.2V304.129C355.392 302.689 356.544 301.536 357.984 301.536H392.688C394.128 301.536 395.28 302.689 395.28 304.129V349.2C395.136 350.64 393.984 351.792 392.688 351.792Z" fill="white"/>
<path d="M439.2 351.792H404.496C403.056 351.792 401.904 350.64 401.904 349.2V304.129C401.904 302.689 403.056 301.536 404.496 301.536H439.2C440.64 301.536 441.792 302.689 441.792 304.129V349.2C441.792 350.64 440.64 351.792 439.2 351.792Z" fill="white"/>
<path d="M297.792 339.264H273.744V342.432H297.792V339.264Z" fill="#D9DFE6"/>
<path d="M290.016 344.736H273.744V347.904H290.016V344.736Z" fill="#D9DFE6"/>
<path d="M343.872 339.264H319.824V342.432H343.872V339.264Z" fill="#D9DFE6"/>
<path d="M336.096 344.736H319.824V347.904H336.096V344.736Z" fill="#D9DFE6"/>
<path d="M389.952 339.264H365.904V342.432H389.952V339.264Z" fill="#D9DFE6"/>
<path d="M382.176 344.736H365.904V347.904H382.176V344.736Z" fill="#D9DFE6"/>
<path d="M436.176 339.264H412.128V342.432H436.176V339.264Z" fill="#D9DFE6"/>
<path d="M428.4 344.736H412.128V347.904H428.4V344.736Z" fill="#D9DFE6"/>
<path d="M452.448 394.849V404.064C452.448 409.68 447.984 414.144 442.368 414.144H261.792C256.176 414.144 251.712 409.68 251.712 404.064V394.849H452.448Z" fill="#C8D0D9"/>
<path d="M383.328 399.168H321.264V402.48H383.328V399.168Z" fill="#B3BDC7"/>
<path d="M367.056 405.504H337.824V408.816H367.056V405.504Z" fill="#B3BDC7"/>
<path d="M231.984 413.136H179.712V324.144H218.592C223.776 329.328 226.8 332.352 231.984 337.536V413.136Z" fill="#CFFFAB"/>
<path d="M224.496 335.664H187.056V338.256H224.496V335.664Z" fill="#B2FF77"/>
<path d="M224.496 342H187.056V344.592H224.496V342Z" fill="#B2FF77"/>
<path d="M224.496 348.336H187.056V350.928H224.496V348.336Z" fill="#B2FF77"/>
<path d="M224.496 354.672H187.056V357.264H224.496V354.672Z" fill="#B2FF77"/>
<path d="M224.496 361.152H187.056V363.744H224.496V361.152Z" fill="#B2FF77"/>
<path d="M209.088 367.488H187.056V370.08H209.088V367.488Z" fill="#75B0FF"/>
<path d="M224.496 380.304H187.056V382.896H224.496V380.304Z" fill="#B2FF77"/>
<path d="M224.496 386.641H187.056V389.232H224.496V386.641Z" fill="#B2FF77"/>
<path d="M224.496 392.976H187.056V395.568H224.496V392.976Z" fill="#B2FF77"/>
<path d="M209.088 399.312H187.056V401.904H209.088V399.312Z" fill="#75B0FF"/>
<path d="M231.984 337.536H218.592V324.144C223.776 329.328 226.656 332.208 231.984 337.536Z" fill="#A3FF5C"/>
<path d="M215.136 428.544H162.864V339.552H201.744C206.928 344.736 209.952 347.76 215.136 352.944V428.544Z" fill="#B2D4FF"/>
<path d="M207.648 351.073H170.208V353.665H207.648V351.073Z" fill="#75B0FF"/>
<path d="M207.648 357.409H170.208V360.001H207.648V357.409Z" fill="#75B0FF"/>
<path d="M207.648 363.745H170.208V366.336H207.648V363.745Z" fill="#75B0FF"/>
<path d="M207.648 370.081H170.208V372.673H207.648V370.081Z" fill="#75B0FF"/>
<path d="M207.648 376.561H170.208V379.152H207.648V376.561Z" fill="#75B0FF"/>
<path d="M192.24 382.896H170.208V385.488H192.24V382.896Z" fill="#75B0FF"/>
<path d="M207.648 395.712H170.208V398.304H207.648V395.712Z" fill="#75B0FF"/>
<path d="M207.648 402.048H170.208V404.64H207.648V402.048Z" fill="#75B0FF"/>
<path d="M207.648 408.385H170.208V410.977H207.648V408.385Z" fill="#75B0FF"/>
<path d="M192.24 414.72H170.208V417.312H192.24V414.72Z" fill="#75B0FF"/>
<path d="M215.136 352.944H201.744V339.552C206.928 344.736 209.808 347.76 215.136 352.944Z" fill="#62A5FF"/>
<path d="M152.64 302.688C152.64 310.609 149.904 317.809 145.296 323.569C139.104 331.345 129.6 336.241 118.944 336.241C108.288 336.241 98.784 331.201 92.592 323.569C92.448 323.281 92.304 323.137 92.016 322.849C87.84 317.233 85.248 310.177 85.248 302.688C85.248 284.112 100.368 268.992 118.944 268.992C131.328 268.992 142.128 275.76 148.032 285.696C151.056 290.592 152.64 296.496 152.64 302.688Z" fill="#C7FF9C"/>
<path d="M144.432 321.985C138.528 329.473 129.312 334.225 119.088 334.225C108.864 334.225 99.6481 329.473 93.7441 321.985C96.1921 311.761 104.544 303.84 114.912 302.256C110.88 300.672 108 296.64 108 292.032C108 285.984 112.896 281.089 118.944 281.089C124.992 281.089 129.888 285.984 129.888 292.032C129.888 296.64 127.008 300.528 122.976 302.256C133.632 303.84 141.984 311.761 144.432 321.985Z" fill="white"/>
<path d="M601.92 109.44C601.92 124.56 596.736 138.528 587.952 149.616C576.144 164.448 557.856 174.096 537.408 174.096C516.96 174.096 498.672 164.592 486.864 149.616C486.576 149.184 486.144 148.752 485.856 148.32C477.648 137.52 472.896 124.128 472.896 109.44C472.896 73.7285 501.84 44.9285 537.408 44.9285C561.168 44.9285 581.904 57.7445 593.136 76.8965C598.752 86.4005 601.92 97.4885 601.92 109.44Z" fill="#C7FF9C"/>
<path d="M587.952 149.616C576.144 164.448 557.856 174.096 537.408 174.096C516.96 174.096 498.672 164.592 486.864 149.616C491.616 129.312 508.32 113.616 529.2 110.16C521.136 106.848 515.52 99.0724 515.52 89.8564C515.52 77.7604 525.312 67.9684 537.408 67.9684C549.504 67.9684 559.296 77.7604 559.296 89.8564C559.296 99.0724 553.68 106.848 545.616 110.16C566.496 113.472 583.2 129.168 587.952 149.616Z" fill="white"/>
<path d="M585.36 404.496H488.304C480.096 404.496 473.472 397.872 473.472 389.664V340.56C473.472 332.352 480.096 325.728 488.304 325.728H585.36C593.568 325.728 600.192 332.352 600.192 340.56V389.808C600.048 398.016 593.424 404.496 585.36 404.496Z" fill="#C7FF9C"/>
<path d="M521.28 345.024V385.92L561.168 365.616L521.28 345.024Z" fill="white"/>
<path d="M281.232 85.3925C280.368 84.5285 280.368 82.9445 281.232 82.0805C292.896 70.4165 292.896 51.5525 281.232 40.0325C280.368 39.1685 280.368 37.5845 281.232 36.7205C282.096 35.8565 283.68 35.8565 284.544 36.7205C297.936 50.1125 297.936 72.0005 284.544 85.3925C283.68 86.2565 282.24 86.2565 281.232 85.3925Z" fill="#EDEDEE"/>
<path d="M274.464 78.6245C273.6 77.7605 273.6 76.1765 274.464 75.3125C282.24 67.5365 282.24 54.7205 274.464 46.9445C273.6 46.0805 273.6 44.4965 274.464 43.6325C275.328 42.7685 276.912 42.7685 277.776 43.6325C287.424 53.2805 287.424 68.9765 277.776 78.6245C276.912 79.4885 275.328 79.4885 274.464 78.6245Z" fill="#EDEDEE"/>
<path d="M267.696 71.8565C266.832 70.9925 266.832 69.4085 267.696 68.5445C271.872 64.3685 271.872 57.6005 267.696 53.5685C266.832 52.7045 266.832 51.1205 267.696 50.2565C268.56 49.3925 270.144 49.3925 271.008 50.2565C276.912 56.1605 276.912 65.9525 271.008 71.8565C270.144 72.7205 268.704 72.7205 267.696 71.8565Z" fill="#EDEDEE"/>
<path d="M260.208 66.3845C263.151 66.3845 265.536 63.9991 265.536 61.0565C265.536 58.114 263.151 55.7285 260.208 55.7285C257.266 55.7285 254.88 58.114 254.88 61.0565C254.88 63.9991 257.266 66.3845 260.208 66.3845Z" fill="#EDEDEE"/>
<path d="M197.712 246.816H115.776C112.176 246.816 109.296 243.936 109.296 240.336V167.472C109.296 163.872 112.176 160.992 115.776 160.992H197.712C201.312 160.992 204.192 163.872 204.192 167.472V240.336C204.192 243.936 201.312 246.816 197.712 246.816Z" fill="#B2D4FF"/>
<path d="M193.968 172.513C195.797 172.513 197.28 171.03 197.28 169.201C197.28 167.371 195.797 165.888 193.968 165.888C192.139 165.888 190.656 167.371 190.656 169.201C190.656 171.03 192.139 172.513 193.968 172.513Z" fill="#B7FF7F"/>
<path d="M184.176 172.513C186.005 172.513 187.488 171.03 187.488 169.201C187.488 167.371 186.005 165.888 184.176 165.888C182.347 165.888 180.864 167.371 180.864 169.201C180.864 171.03 182.347 172.513 184.176 172.513Z" fill="white"/>
<path d="M174.384 172.513C176.213 172.513 177.696 171.03 177.696 169.201C177.696 167.371 176.213 165.888 174.384 165.888C172.555 165.888 171.072 167.371 171.072 169.201C171.072 171.03 172.555 172.513 174.384 172.513Z" fill="#287FF4"/>
<path d="M138.384 228.672C136.224 228.672 134.496 226.944 134.496 224.784V199.44C134.496 197.28 136.224 195.552 138.384 195.552C140.544 195.552 142.272 197.28 142.272 199.44V224.784C142.272 226.944 140.544 228.672 138.384 228.672Z" fill="#1E7AF4"/>
<path d="M175.104 228.672C172.944 228.672 171.216 226.944 171.216 224.784V199.44C171.216 197.28 172.944 195.552 175.104 195.552C177.264 195.552 178.992 197.28 178.992 199.44V224.784C178.992 226.944 177.264 228.672 175.104 228.672Z" fill="#1E7AF4"/>
<path d="M162.864 228.672C160.704 228.672 158.976 226.944 158.976 224.784V207.072C158.976 204.912 160.704 203.184 162.864 203.184C165.024 203.184 166.752 204.912 166.752 207.072V224.784C166.752 226.944 165.024 228.672 162.864 228.672Z" fill="#1E7AF4"/>
<path d="M150.624 228.672C148.464 228.672 146.736 226.944 146.736 224.784V186.336C146.736 184.176 148.464 182.448 150.624 182.448C152.784 182.448 154.512 184.176 154.512 186.336V224.784C154.512 226.944 152.784 228.672 150.624 228.672Z" fill="#1E7AF4"/>
<path d="M181.152 235.008H132.336C131.76 235.008 131.184 234.432 131.184 233.856C131.184 233.28 131.76 232.704 132.336 232.704H181.152C181.728 232.704 182.304 233.28 182.304 233.856C182.304 234.576 181.728 235.008 181.152 235.008Z" fill="#1E7AF4"/>
<path d="M408.096 63.6484C407.088 63.6484 406.224 63.7924 405.36 64.0804C404.496 59.7604 401.472 56.1604 397.44 54.5765C397.584 53.4245 397.728 52.1285 397.728 50.8325C397.728 34.8485 384.768 21.7444 368.64 21.7444C354.096 21.7444 342.144 32.4004 339.984 46.3684C338.832 46.0804 337.536 45.9365 336.24 45.9365C326.88 45.9365 319.248 53.5684 319.248 62.9284C319.248 72.2884 326.88 79.9205 336.24 79.9205H408.096C412.56 79.9205 416.16 76.3205 416.16 71.8565C416.304 67.2485 412.56 63.6484 408.096 63.6484Z" fill="#ECFFDD"/>
<path d="M364.176 92.4485H351.648V95.1845H364.176V92.4485Z" fill="#3587F5"/>
<path d="M374.976 92.4485H365.328V95.1845H374.976V92.4485Z" fill="#3587F5"/>
<path d="M383.616 92.4485H375.984V95.1845H383.616V92.4485Z" fill="#3587F5"/>
<path d="M383.616 98.9285H357.84V101.664H383.616V98.9285Z" fill="#3587F5"/>
<path d="M356.4 98.9285H351.648V101.664H356.4V98.9285Z" fill="#3587F5"/>
<path d="M378.144 105.408H365.904V108.144H378.144V105.408Z" fill="#3587F5"/>
<path d="M383.76 105.408H379.296V108.144H383.76V105.408Z" fill="#3587F5"/>
<path d="M364.752 105.408H351.648V108.144H364.752V105.408Z" fill="#3587F5"/>
<path d="M371.52 111.888H360.864V114.624H371.52V111.888Z" fill="#3587F5"/>
<path d="M359.712 111.888H351.648V114.624H359.712V111.888Z" fill="#3587F5"/>
<path d="M42.768 207.073H18V212.545H42.768V207.073Z" fill="#EEF5FF"/>
<path d="M63.936 207.073H44.928V212.545H63.936V207.073Z" fill="#EEF5FF"/>
<path d="M81.0719 207.073H65.9519V212.545H81.0719V207.073Z" fill="#EEF5FF"/>
<path d="M81.216 219.889H30.24V225.361H81.216V219.889Z" fill="#EEF5FF"/>
<path d="M27.36 219.889H18V225.361H27.36V219.889Z" fill="#EEF5FF"/>
<path d="M70.1281 232.705H46.0801V238.177H70.1281V232.705Z" fill="#EEF5FF"/>
<path d="M81.0721 232.705H72.4321V238.177H81.0721V232.705Z" fill="#EEF5FF"/>
<path d="M43.92 232.705H18V238.177H43.92V232.705Z" fill="#EEF5FF"/>
<path d="M57.168 245.376H36.144V250.848H57.168V245.376Z" fill="#EEF5FF"/>
<path d="M33.84 245.376H18V250.848H33.84V245.376Z" fill="#EEF5FF"/>
<path d="M627.84 297.216H519.696C516.096 297.216 513.216 294.336 513.216 290.736V217.873C513.216 214.273 516.096 211.393 519.696 211.393H627.84C631.44 211.393 634.32 214.273 634.32 217.873V290.736C634.32 294.336 631.44 297.216 627.84 297.216Z" fill="#B2D4FF"/>
<path d="M624.096 222.913C625.925 222.913 627.408 221.43 627.408 219.601C627.408 217.771 625.925 216.289 624.096 216.289C622.267 216.289 620.784 217.771 620.784 219.601C620.784 221.43 622.267 222.913 624.096 222.913Z" fill="#B7FF7F"/>
<path d="M614.304 222.913C616.133 222.913 617.616 221.43 617.616 219.601C617.616 217.771 616.133 216.289 614.304 216.289C612.475 216.289 610.992 217.771 610.992 219.601C610.992 221.43 612.475 222.913 614.304 222.913Z" fill="white"/>
<path d="M604.512 222.913C606.341 222.913 607.824 221.43 607.824 219.601C607.824 217.771 606.341 216.289 604.512 216.289C602.683 216.289 601.2 217.771 601.2 219.601C601.2 221.43 602.683 222.913 604.512 222.913Z" fill="#287FF4"/>
<path d="M529.344 276.769L528.336 275.761L549.936 254.161L563.04 267.265L591.552 238.753L605.376 252.577L615.888 242.065L616.896 243.073L605.376 254.593L591.552 240.769L563.04 269.281L549.936 256.177L529.344 276.769Z" fill="#1E7AF4"/>
<path d="M528.912 280.801C531.457 280.801 533.52 278.737 533.52 276.192C533.52 273.648 531.457 271.585 528.912 271.585C526.367 271.585 524.304 273.648 524.304 276.192C524.304 278.737 526.367 280.801 528.912 280.801Z" fill="#1E7AF4"/>
<path d="M550.08 260.209C552.625 260.209 554.688 258.145 554.688 255.601C554.688 253.056 552.625 250.993 550.08 250.993C547.535 250.993 545.472 253.056 545.472 255.601C545.472 258.145 547.535 260.209 550.08 260.209Z" fill="#1E7AF4"/>
<path d="M563.184 272.88C565.729 272.88 567.792 270.817 567.792 268.272C567.792 265.727 565.729 263.664 563.184 263.664C560.639 263.664 558.576 265.727 558.576 268.272C558.576 270.817 560.639 272.88 563.184 272.88Z" fill="#1E7AF4"/>
<path d="M591.552 244.656C594.097 244.656 596.16 242.593 596.16 240.048C596.16 237.504 594.097 235.44 591.552 235.44C589.007 235.44 586.944 237.504 586.944 240.048C586.944 242.593 589.007 244.656 591.552 244.656Z" fill="#1E7AF4"/>
<path d="M605.376 258.049C607.921 258.049 609.984 255.985 609.984 253.441C609.984 250.896 607.921 248.833 605.376 248.833C602.831 248.833 600.768 250.896 600.768 253.441C600.768 255.985 602.831 258.049 605.376 258.049Z" fill="#1E7AF4"/>
<path d="M616.32 247.104C618.865 247.104 620.928 245.041 620.928 242.496C620.928 239.952 618.865 237.888 616.32 237.888C613.775 237.888 611.712 239.952 611.712 242.496C611.712 245.041 613.775 247.104 616.32 247.104Z" fill="#1E7AF4"/>
<path d="M534.528 214.128C532.8 213.552 532.512 211.248 534.096 210.384C536.112 209.232 535.104 206.208 532.8 206.496C530.928 206.64 529.776 204.624 530.928 203.184C532.224 201.312 530.208 199.008 528.192 200.16C526.608 201.024 524.736 199.728 525.024 197.856C525.456 195.696 522.576 194.4 521.28 196.128C520.272 197.568 517.968 197.136 517.536 195.264C517.104 193.104 513.936 193.104 513.504 195.264C513.072 196.992 510.768 197.568 509.76 196.128C508.464 194.256 505.584 195.552 506.016 197.856C506.448 199.584 504.432 201.024 502.848 200.16C500.832 199.008 498.816 201.312 500.112 203.184C501.264 204.624 499.968 206.64 498.24 206.496C495.936 206.208 494.928 209.232 496.944 210.384C498.528 211.248 498.24 213.696 496.512 214.128C494.352 214.848 494.64 218.016 496.944 218.16C498.816 218.304 499.536 220.608 498.096 221.76C496.368 223.2 497.952 226.08 500.112 225.36C501.84 224.784 503.424 226.512 502.704 228.24C501.696 230.256 504.288 232.128 506.016 230.688C507.312 229.392 509.472 230.4 509.472 232.272C509.472 234.576 512.496 235.152 513.504 233.136C514.224 231.408 516.672 231.408 517.392 233.136C518.256 235.152 521.424 234.576 521.424 232.272C521.424 230.4 523.584 229.536 524.88 230.688C526.608 232.272 529.2 230.4 528.192 228.24C527.472 226.512 529.056 224.784 530.784 225.36C532.944 226.08 534.528 223.344 532.8 221.76C531.504 220.608 532.224 218.304 533.952 218.16C536.256 218.016 536.688 214.848 534.528 214.128ZM515.52 225.936C508.896 225.936 503.568 220.608 503.568 213.984C503.568 207.36 508.896 202.032 515.52 202.032C522.144 202.032 527.472 207.36 527.472 213.984C527.472 220.608 522.144 225.936 515.52 225.936Z" fill="#DFFFC5"/>
<path d="M118.08 118.801V153.793" stroke="#DFFFC5" stroke-width="1.2669" stroke-miterlimit="10" stroke-dasharray="2.3 2.3"/>
<path d="M116.064 118.944C116.064 117.792 116.928 116.928 118.08 116.928C119.232 116.928 120.096 117.792 120.096 118.944C120.096 120.096 119.232 120.96 118.08 120.96C116.928 120.96 116.064 120.096 116.064 118.944Z" fill="#DFFFC5"/>
<path d="M116.064 153.648C116.064 154.8 116.928 155.664 118.08 155.664C119.232 155.664 120.096 154.8 120.096 153.648C120.096 152.496 119.232 151.632 118.08 151.632C116.928 151.632 116.064 152.64 116.064 153.648Z" fill="#DFFFC5"/>
<path d="M206.208 88.5605H246.528L310.464 152.64" stroke="#DFFFC5" stroke-width="1.2669" stroke-miterlimit="10" stroke-dasharray="2.3 2.3"/>
<path d="M206.352 90.5765C205.2 90.5765 204.336 89.7125 204.336 88.5605C204.336 87.4085 205.2 86.5445 206.352 86.5445C207.504 86.5445 208.368 87.4085 208.368 88.5605C208.368 89.7125 207.504 90.5765 206.352 90.5765Z" fill="#6F7082"/>
<path d="M309.024 153.936C309.888 154.8 311.184 154.8 311.904 153.936C312.768 153.072 312.768 151.776 311.904 151.056C311.04 150.192 309.744 150.192 309.024 151.056C308.16 151.92 308.16 153.216 309.024 153.936Z" fill="#6F7082"/>
<path d="M377.712 349.776L408.096 380.161H471.456" stroke="#DFFFC5" stroke-width="1.2669" stroke-miterlimit="10" stroke-dasharray="2.3 2.3"/>
<path d="M376.416 351.361C375.552 350.497 375.552 349.201 376.416 348.481C377.28 347.617 378.576 347.617 379.296 348.481C380.16 349.345 380.16 350.641 379.296 351.361C378.576 352.081 377.136 352.081 376.416 351.361Z" fill="#DFFFC5"/>
<path d="M471.312 382.177C472.464 382.177 473.328 381.313 473.328 380.161C473.328 379.009 472.464 378.145 471.312 378.145C470.16 378.145 469.296 379.009 469.296 380.161C469.296 381.313 470.16 382.177 471.312 382.177Z" fill="#DFFFC5"/>
<path d="M116.64 340.56V371.952L136.656 391.968H158.256" stroke="#DFFFC5" stroke-width="1.2669" stroke-miterlimit="10" stroke-dasharray="2.3 2.3"/>
<path d="M114.624 340.704C114.624 339.552 115.488 338.688 116.64 338.688C117.792 338.688 118.656 339.552 118.656 340.704C118.656 341.856 117.792 342.72 116.64 342.72C115.488 342.72 114.624 341.856 114.624 340.704Z" fill="#DFFFC5"/>
<path d="M158.112 394.128C159.264 394.128 160.128 393.264 160.128 392.112C160.128 390.96 159.264 390.096 158.112 390.096C156.96 390.096 156.096 390.96 156.096 392.112C156.096 393.12 156.96 394.128 158.112 394.128Z" fill="#DFFFC5"/>
<path d="M586.512 160.272L602.496 176.256C603.648 177.408 604.224 178.992 604.224 180.576V205.2" stroke="#DFFFC5" stroke-width="1.2669" stroke-miterlimit="10" stroke-dasharray="2.3 2.3"/>
<path d="M585.072 161.856C584.208 160.992 584.208 159.696 585.072 158.976C585.936 158.112 587.232 158.112 587.952 158.976C588.816 159.84 588.816 161.136 587.952 161.856C587.232 162.72 585.936 162.72 585.072 161.856Z" fill="#DFFFC5"/>
<path d="M602.064 205.056C602.064 206.208 602.928 207.072 604.08 207.072C605.232 207.072 606.096 206.208 606.096 205.056C606.096 203.904 605.232 203.04 604.08 203.04C603.072 203.04 602.064 204.048 602.064 205.056Z" fill="#DFFFC5"/>
<path d="M433.44 447.552H412.416V452.304H433.44V447.552Z" fill="#C7FF9C"/>
<path d="M451.584 447.552H435.312V452.304H451.584V447.552Z" fill="#C7FF9C"/>
<path d="M465.984 447.552H453.168V452.304H465.984V447.552Z" fill="#1E7AF4"/>
<path d="M466.128 458.497H422.784V463.249H466.128V458.497Z" fill="#C7FF9C"/>
<path d="M420.336 458.497H412.416V463.249H420.336V458.497Z" fill="#C7FF9C"/>
<path d="M456.768 469.296H436.32V474.048H456.768V469.296Z" fill="#1E7AF4"/>
<path d="M465.984 469.296H458.64V474.048H465.984V469.296Z" fill="#1E7AF4"/>
<path d="M434.448 469.296H412.416V474.048H434.448V469.296Z" fill="#C7FF9C"/>
<path d="M445.68 480.24H427.824V484.992H445.68V480.24Z" fill="#1E7AF4"/>
<path d="M425.808 480.24H412.416V484.992H425.808V480.24Z" fill="#C7FF9C"/>
<path d="M368.496 447.552H347.472V452.304H368.496V447.552Z" fill="#C7FF9C"/>
<path d="M386.784 447.552H370.512V452.304H386.784V447.552Z" fill="#C7FF9C"/>
<path d="M401.184 447.552H388.368V452.304H401.184V447.552Z" fill="#1E7AF4"/>
<path d="M401.328 458.497H357.984V463.249H401.328V458.497Z" fill="#C7FF9C"/>
<path d="M355.392 458.497H347.472V463.249H355.392V458.497Z" fill="#C7FF9C"/>
<path d="M391.824 469.296H371.376V474.048H391.824V469.296Z" fill="#1E7AF4"/>
<path d="M401.184 469.296H393.84V474.048H401.184V469.296Z" fill="#1E7AF4"/>
<path d="M369.504 469.296H347.472V474.048H369.504V469.296Z" fill="#C7FF9C"/>
<path d="M380.88 480.24H363.024V484.992H380.88V480.24Z" fill="#1E7AF4"/>
<path d="M360.864 480.24H347.472V484.992H360.864V480.24Z" fill="#C7FF9C"/>
<path d="M479.808 432.864H333.936V499.536H479.808V432.864Z" stroke="#C7FF9C" stroke-width="0.8638" stroke-miterlimit="10" stroke-dasharray="1.15 1.15"/>
<path d="M335.808 430.992H332.064V434.736H335.808V430.992Z" fill="#C7FF9C"/>
<path d="M408.096 430.992H404.352V434.736H408.096V430.992Z" fill="#C7FF9C"/>
<path d="M481.536 430.992H477.792V434.736H481.536V430.992Z" fill="#C7FF9C"/>
<path d="M335.808 464.401H332.064V468.144H335.808V464.401Z" fill="#C7FF9C"/>
<path d="M481.536 464.401H477.792V468.144H481.536V464.401Z" fill="#C7FF9C"/>
<path d="M335.808 497.665H332.064V501.409H335.808V497.665Z" fill="#C7FF9C"/>
<path d="M408.096 497.665H404.352V501.409H408.096V497.665Z" fill="#C7FF9C"/>
<path d="M481.536 497.665H477.792V501.409H481.536V497.665Z" fill="#C7FF9C"/>
<path d="M457.776 59.3285H456.192C455.328 59.3285 454.608 58.6085 454.608 57.7445V56.1605C454.608 55.4405 454.032 54.5765 453.312 54.4325C452.304 54.2885 451.296 55.0085 451.296 56.0165V57.7445C451.296 58.6085 450.576 59.3285 449.712 59.3285H448.128C447.408 59.3285 446.544 59.9045 446.4 60.6245C446.256 61.6325 446.976 62.6405 447.984 62.6405H449.712C450.576 62.6405 451.296 63.3605 451.296 64.2245V65.8085C451.296 66.5285 451.872 67.3925 452.592 67.5365C453.6 67.6805 454.608 66.9605 454.608 65.9525V64.2245C454.608 63.3605 455.328 62.6405 456.192 62.6405H457.92C458.928 62.6405 459.792 61.7765 459.504 60.6245C459.36 59.9045 458.64 59.3285 457.776 59.3285Z" fill="#B2D4FF"/>
<path d="M278.928 445.248H276.192C274.608 445.248 273.456 443.952 273.456 442.512V439.776C273.456 438.48 272.592 437.184 271.152 436.896C269.424 436.608 267.84 437.904 267.84 439.632V442.512C267.84 444.096 266.544 445.248 265.104 445.248H262.368C261.072 445.248 259.776 446.112 259.488 447.552C259.2 449.28 260.496 450.864 262.224 450.864H265.104C266.688 450.864 267.84 452.16 267.84 453.6V456.336C267.84 457.632 268.704 458.928 270.144 459.216C271.872 459.504 273.456 458.208 273.456 456.48V453.6C273.456 452.016 274.752 450.864 276.192 450.864H279.072C280.8 450.864 282.24 449.28 281.808 447.552C281.52 446.256 280.224 445.248 278.928 445.248Z" fill="#B2D4FF"/>
<path d="M627.408 319.968H625.68C624.672 319.968 623.952 319.104 623.952 318.24V316.512C623.952 315.648 623.376 314.784 622.512 314.64C621.36 314.352 620.352 315.36 620.352 316.368V318.24C620.352 319.248 619.488 319.968 618.624 319.968H616.896C616.032 319.968 615.168 320.544 615.024 321.408C614.736 322.56 615.744 323.568 616.752 323.568H618.624C619.632 323.568 620.352 324.432 620.352 325.296V327.024C620.352 327.888 620.928 328.752 621.792 328.896C622.944 329.184 623.952 328.176 623.952 327.168V325.296C623.952 324.288 624.816 323.568 625.68 323.568H627.552C628.704 323.568 629.568 322.56 629.28 321.408C628.992 320.544 628.272 319.968 627.408 319.968Z" fill="#C7FF9C"/>
<path d="M521.136 436.032C524.556 436.032 527.328 433.26 527.328 429.84C527.328 426.421 524.556 423.648 521.136 423.648C517.716 423.648 514.944 426.421 514.944 429.84C514.944 433.26 517.716 436.032 521.136 436.032Z" fill="#B2D4FF"/>
<path d="M522.864 476.064C524.852 476.064 526.464 474.453 526.464 472.464C526.464 470.476 524.852 468.865 522.864 468.865C520.876 468.865 519.264 470.476 519.264 472.464C519.264 474.453 520.876 476.064 522.864 476.064Z" fill="#B2D4FF"/>
<path d="M195.12 455.76C197.506 455.76 199.44 453.826 199.44 451.44C199.44 449.054 197.506 447.12 195.12 447.12C192.734 447.12 190.8 449.054 190.8 451.44C190.8 453.826 192.734 455.76 195.12 455.76Z" stroke="#EEF5FF" stroke-miterlimit="10"/>
<path d="M252.72 495.072C254.311 495.072 255.6 493.783 255.6 492.192C255.6 490.602 254.311 489.312 252.72 489.312C251.13 489.312 249.84 490.602 249.84 492.192C249.84 493.783 251.13 495.072 252.72 495.072Z" fill="#EEF5FF"/>
<path d="M69.84 343.584C69.84 346.032 67.824 347.904 65.52 347.904C63.072 347.904 61.2 345.888 61.2 343.584C61.2 341.136 63.216 339.264 65.52 339.264C67.968 339.264 69.84 341.136 69.84 343.584Z" stroke="#C7FF9C" stroke-miterlimit="10"/>
<path d="M58.8961 294.048C60.4867 294.048 61.7761 292.759 61.7761 291.169C61.7761 289.578 60.4867 288.289 58.8961 288.289C57.3055 288.289 56.0161 289.578 56.0161 291.169C56.0161 292.759 57.3055 294.048 58.8961 294.048Z" fill="#C7FF9C"/>
<path d="M54.5761 178.273C56.962 178.273 58.8961 176.338 58.8961 173.953C58.8961 171.567 56.962 169.633 54.5761 169.633C52.1902 169.633 50.2561 171.567 50.2561 173.953C50.2561 176.338 52.1902 178.273 54.5761 178.273Z" fill="#EEF5FF"/>
<path d="M319.392 10.0805C321.619 10.0805 323.424 8.27528 323.424 6.04847C323.424 3.82166 321.619 2.01648 319.392 2.01648C317.165 2.01648 315.36 3.82166 315.36 6.04847C315.36 8.27528 317.165 10.0805 319.392 10.0805Z" stroke="#DFFFC5" stroke-miterlimit="10"/>
<path d="M242.064 22.4645C244.291 22.4645 246.096 20.6593 246.096 18.4325C246.096 16.2057 244.291 14.4005 242.064 14.4005C239.837 14.4005 238.032 16.2057 238.032 18.4325C238.032 20.6593 239.837 22.4645 242.064 22.4645Z" fill="#DFFFC5"/>
<path d="M439.488 108.432C441.317 108.432 442.8 106.95 442.8 105.12C442.8 103.291 441.317 101.808 439.488 101.808C437.659 101.808 436.176 103.291 436.176 105.12C436.176 106.95 437.659 108.432 439.488 108.432Z" fill="#DFFFC5"/>
<path d="M456.624 404.353C456.624 406.513 454.896 408.385 452.592 408.385C450.432 408.385 448.56 406.657 448.56 404.353C448.56 402.193 450.288 400.321 452.592 400.321C454.752 400.465 456.624 402.193 456.624 404.353Z" fill="#EEF5FF"/>
<path d="M286.128 386.209C286.128 388.369 284.4 390.241 282.096 390.241C279.936 390.241 278.064 388.513 278.064 386.209C278.064 384.049 279.792 382.177 282.096 382.177C284.4 382.177 286.128 384.049 286.128 386.209Z" fill="#EEF5FF"/>
<path d="M109.872 432.432C113.053 432.432 115.632 429.854 115.632 426.672C115.632 423.491 113.053 420.912 109.872 420.912C106.691 420.912 104.112 423.491 104.112 426.672C104.112 429.854 106.691 432.432 109.872 432.432Z" fill="#B2D4FF"/>
<path d="M173.833 68.7088V87.5005C173.833 89.7922 171.958 91.6672 169.667 91.6672H136.333C134.042 91.6672 132.167 89.7922 132.167 87.5005V62.5005C132.167 60.2088 134.042 58.3338 136.333 58.3338H157.375C157.25 59.0005 157.167 59.7088 157.167 60.4172C157.167 63.5005 158.521 66.2297 160.646 68.1463L153 72.9172L136.333 62.5005V66.6672L153 77.0838L164.042 70.1672C165.167 70.5838 166.333 70.8338 167.583 70.8338C169.937 70.8338 172.083 70.0213 173.833 68.7088ZM161.333 60.4172C161.333 63.8755 164.125 66.6672 167.583 66.6672C171.042 66.6672 173.833 63.8755 173.833 60.4172C173.833 56.9588 171.042 54.1672 167.583 54.1672C164.125 54.1672 161.333 56.9588 161.333 60.4172Z" fill="#1E7AF4"/>
</g>
<defs>
<clipPath id="clip0_39_29">
<rect width="720" height="510" fill="white" transform="translate(0 0.000488281)"/>
</clipPath>
</defs>
</svg>
