<svg width="227" height="37" viewBox="0 0 227 37" fill="none" xmlns="http://www.w3.org/2000/svg">
<path d="M3.768 36.48C2.616 36.512 1.72 36.224 1.08 35.616C0.44 34.976 0.12 34.08 0.12 32.928V2.16H6.312V31.104L23.016 30.624V36L3.768 36.48ZM25.4569 23.664C25.4569 19.888 26.5929 16.912 28.8649 14.736C31.1369 12.528 34.0969 11.424 37.7449 11.424C41.3929 11.424 44.3209 12.48 46.5289 14.592C48.7689 16.704 49.8889 19.568 49.8889 23.184V25.2H31.3129C31.3769 27.088 31.9849 28.608 33.1369 29.76C34.3209 30.88 36.0969 31.44 38.4649 31.44C41.8889 31.44 43.9209 30.144 44.5609 27.552H50.7529C50.3369 29.76 49.0889 31.808 47.0089 33.696C44.9289 35.552 42.0809 36.48 38.4649 36.48C34.2089 36.48 30.9769 35.264 28.7689 32.832C26.5609 30.4 25.4569 27.344 25.4569 23.664ZM31.3129 21.456H44.0329C44.0329 20.016 43.5049 18.832 42.4489 17.904C41.4249 16.976 39.8569 16.512 37.7449 16.512C35.6329 16.512 34.0329 16.992 32.9449 17.952C31.8569 18.88 31.3129 20.048 31.3129 21.456ZM72.6334 11.904H78.6814L71.9134 36H59.1934L52.3294 11.904H58.4254L64.7614 34.416H66.3454L72.6334 11.904ZM80.3006 23.664C80.3006 19.888 81.4366 16.912 83.7086 14.736C85.9806 12.528 88.9406 11.424 92.5886 11.424C96.2366 11.424 99.1646 12.48 101.373 14.592C103.613 16.704 104.733 19.568 104.733 23.184V25.2H86.1566C86.2206 27.088 86.8286 28.608 87.9806 29.76C89.1646 30.88 90.9406 31.44 93.3086 31.44C96.7326 31.44 98.7646 30.144 99.4046 27.552H105.597C105.181 29.76 103.933 31.808 101.853 33.696C99.7726 35.552 96.9246 36.48 93.3086 36.48C89.0526 36.48 85.8206 35.264 83.6126 32.832C81.4046 30.4 80.3006 27.344 80.3006 23.664ZM86.1566 21.456H98.8766C98.8766 20.016 98.3486 18.832 97.2926 17.904C96.2686 16.976 94.7006 16.512 92.5886 16.512C90.4766 16.512 88.8766 16.992 87.7886 17.952C86.7006 18.88 86.1566 20.048 86.1566 21.456ZM123.537 16.8C121.169 16.8 119.313 17.6 117.969 19.2C116.625 20.768 115.953 23.168 115.953 26.4V36H109.761V11.904H115.953V15.312L114.849 19.008H116.433C116.945 16.736 117.969 14.912 119.505 13.536C121.073 12.128 123.105 11.424 125.601 11.424C128.577 11.424 130.897 12.368 132.561 14.256C134.257 16.112 135.105 18.8 135.105 22.32V36H128.961V23.232C128.961 20.928 128.529 19.28 127.665 18.288C126.833 17.296 125.457 16.8 123.537 16.8ZM142.731 33.12C140.267 30.88 139.035 27.824 139.035 23.952C139.035 20.08 140.267 17.024 142.731 14.784C145.195 12.544 148.379 11.424 152.283 11.424C156.155 11.424 159.323 12.544 161.787 14.784C164.251 17.024 165.483 20.08 165.483 23.952C165.483 27.824 164.251 30.88 161.787 33.12C159.323 35.36 156.155 36.48 152.283 36.48C148.379 36.48 145.195 35.36 142.731 33.12ZM147.099 18.72C145.851 20 145.227 21.744 145.227 23.952C145.227 26.16 145.851 27.904 147.099 29.184C148.347 30.464 150.075 31.104 152.283 31.104C154.491 31.104 156.219 30.464 157.467 29.184C158.715 27.904 159.339 26.16 159.339 23.952C159.339 21.744 158.715 20 157.467 18.72C156.219 17.44 154.491 16.8 152.283 16.8C150.075 16.8 148.347 17.44 147.099 18.72ZM219.031 36L212.215 25.968L207.031 28.56V36H200.839V0.719999H207.031V22.176L218.551 16.416L218.311 11.904H224.455L224.647 16.848C224.679 18.8 223.815 20.208 222.055 21.072L217.447 23.376L226.087 36H219.031Z" fill="#2C2C2C"/>
<path d="M188.984 36L182.168 25.968L176.984 28.56V36H170.792V0.719999H176.984V22.176L188.504 16.416L188.264 11.904H194.408L194.6 16.848C194.632 18.8 193.768 20.208 192.008 21.072L187.4 23.376L196.04 36H188.984Z" fill="#1E7AF4"/>
</svg>
