<svg width="662" height="587" viewBox="0 0 662 587" fill="none" xmlns="http://www.w3.org/2000/svg">
<path fill-rule="evenodd" clip-rule="evenodd" d="M636.905 281.411C640.039 339.972 598.267 388.309 568.379 438.765C538.708 488.855 514.283 492.135 463.949 521.39C410.166 552.651 345.38 564.335 284.449 551.796C223.102 539.171 173.873 549.645 130.239 504.714C84.8006 457.924 42.6476 406.133 30.2999 342.09C17.2128 274.213 13.8844 193.239 60.3101 142.021C106.025 91.5866 189.589 117.426 253.972 95.3288C310.119 76.0579 352.276 14.9059 411.264 21.5662C471.317 28.3468 512.172 83.3247 551.797 128.956C590.915 174.003 633.716 221.836 636.905 281.411Z" fill="#EEF5FF"/>
<g clip-path="url(#clip0_22_312)">
<path d="M278.349 311.637L270.641 314.282L278.349 316.928V321.253L265.375 316.547V312.018L278.349 307.312V311.637ZM287.129 301.766H292.217L283.822 325.73H278.734L287.129 301.766ZM278.349 343.018V347.547L265.375 352.253V347.928L273.083 345.282L265.375 342.637V338.312L278.349 343.018Z" fill="#323247"/>
<path d="M391.02 241.596C389.782 268.56 363.279 289.175 343.381 290.412C317.126 292.061 298.384 268.395 295.742 241.596C293.513 218.342 301.77 218.672 307.879 209.024C315.31 197.315 329.263 190.8 343.299 190.8C369.636 190.8 392.672 205.313 391.02 241.596Z" fill="#F9D880"/>
<path d="M361.875 287.856H324.97V333.951H361.875V287.856Z" fill="#F8CBC0"/>
<path d="M384.828 260.974C391.433 250.996 399.772 250.584 403.24 262.376C406.707 274.168 395.231 283.898 385.819 280.27C376.407 276.724 384.828 260.974 384.828 260.974Z" fill="#E8B5A9"/>
<path d="M392.589 261.221C396.965 260.397 399.277 273.508 389.617 274.003L391.598 269.385L389.699 265.592L392.589 261.221Z" fill="#D78F97"/>
<path d="M388.131 275.817C393.745 269.797 389.699 265.674 389.699 265.674C389.699 265.674 395.066 254.707 397.212 263.118" stroke="#C87E84" stroke-width="0.5" stroke-miterlimit="10"/>
<path d="M301.604 260.974C294.999 250.996 286.66 250.584 283.193 262.376C279.725 274.168 291.201 283.898 300.613 280.27C310.026 276.724 301.604 260.974 301.604 260.974Z" fill="#E8B5A9"/>
<path d="M293.843 261.221C289.468 260.397 287.156 273.508 296.816 274.003L294.834 269.385L296.733 265.592L293.843 261.221Z" fill="#D78F97"/>
<path d="M298.302 275.817C292.687 269.797 296.733 265.674 296.733 265.674C296.733 265.674 291.366 254.707 289.22 263.118" stroke="#C87E84" stroke-width="0.5" stroke-miterlimit="10"/>
<path d="M361.793 288.928V306.08C348.5 324.056 324.887 318.201 324.887 318.201L325.3 288.928H361.793Z" fill="#E0A192"/>
<path d="M343.381 308.554C321.337 308.554 303.503 290.742 303.503 268.725V239.617C303.503 224.774 315.557 212.735 330.419 212.735H356.344C371.205 212.735 383.259 224.774 383.259 239.617V268.725C383.259 290.742 365.426 308.554 343.381 308.554Z" fill="#F8CBC0"/>
<path d="M349.491 273.92C349.491 277.301 346.766 280.022 343.381 280.022C339.996 280.022 337.271 277.301 337.271 273.92" stroke="#B83D5D" stroke-miterlimit="10"/>
<path d="M307.714 214.549C307.714 214.549 300.696 203.004 309.448 192.779C309.448 192.779 315.805 204.406 307.714 214.549Z" fill="#F9D880"/>
<path d="M311.264 211.745C311.264 211.745 301.522 221.146 289.633 214.879C289.633 214.879 299.54 206.221 311.264 211.745Z" fill="#F9D880"/>
<path d="M327.529 259.655C327.529 262.953 326.126 265.592 324.392 265.592C322.658 265.592 321.254 262.953 321.254 259.655C321.254 256.356 322.658 253.718 324.392 253.718C326.126 253.718 327.529 256.356 327.529 259.655Z" fill="#36364F"/>
<path d="M338.282 263.395C340.601 254.869 335.562 246.079 327.025 243.763C318.489 241.446 309.688 246.48 307.369 255.006C305.049 263.532 310.089 272.321 318.626 274.638C327.162 276.954 335.963 271.921 338.282 263.395Z" stroke="#2C2C2C" stroke-width="4" stroke-miterlimit="10"/>
<path d="M365.508 259.655C365.508 262.953 364.105 265.592 362.371 265.592C360.637 265.592 359.233 262.953 359.233 259.655C359.233 256.356 360.637 253.718 362.371 253.718C364.105 253.718 365.508 256.356 365.508 259.655Z" fill="#36364F"/>
<path d="M379.415 263.531C381.776 255.016 376.779 246.202 368.254 243.844C359.729 241.486 350.905 246.477 348.544 254.991C346.183 263.506 351.179 272.319 359.704 274.678C368.229 277.036 377.054 272.045 379.415 263.531Z" stroke="#2C2C2C" stroke-width="4" stroke-miterlimit="10"/>
<path d="M308.457 224.114C308.457 224.114 333.804 210.756 350.647 220.404C367.49 230.051 369.389 250.007 385.984 244.894C385.984 244.894 398.616 239.369 384.745 219.991C370.875 200.613 361.38 196.902 343.299 201.108C325.217 205.313 313.411 208.612 308.457 224.114Z" fill="#F9D880"/>
<path d="M307.466 223.949C307.466 223.949 315.805 212.9 327.529 209.931C339.253 206.963 352.216 221.393 352.216 221.393C352.216 221.393 322.245 217.105 307.466 223.949Z" fill="#FDCC4B"/>
<path d="M303.586 237.885C303.586 237.885 306.393 258.418 303.586 270.952C303.586 270.952 299.458 239.04 303.586 237.885Z" fill="#F9D880"/>
<path d="M383.012 237.885C383.012 237.885 380.204 258.418 383.012 270.952C383.012 270.952 387.057 239.04 383.012 237.885Z" fill="#F9D880"/>
<path d="M331.575 236.236C327.199 234.174 319.52 231.866 312.337 236.978C311.099 237.803 311.594 239.699 313.08 239.947C315.392 240.359 318.695 240.771 322.41 240.689C325.3 240.689 328.768 239.947 331.327 239.287C332.731 238.957 332.978 236.896 331.575 236.236Z" fill="#F9D880"/>
<path d="M373.599 236.236C369.223 234.174 361.545 231.866 354.362 236.978C353.124 237.803 353.619 239.699 355.105 239.947C357.417 240.359 360.719 240.771 364.435 240.689C367.324 240.689 370.792 239.947 373.352 239.287C374.755 238.957 375.003 236.896 373.599 236.236Z" fill="#F9D880"/>
<path d="M356.839 288.351C356.426 289.093 355.931 289.835 355.27 290.66C353.124 293.216 349.491 295.69 343.299 295.772H342.803C337.024 295.69 333.391 293.463 331.244 291.072C330.419 290.165 329.758 289.175 329.345 288.351C328.272 286.372 328.024 284.805 328.024 284.805L358.16 284.887C358.16 284.805 357.912 286.372 356.839 288.351Z" fill="#C33E5D"/>
<path d="M356.839 288.351C356.426 289.093 355.931 289.835 355.27 290.66C348.335 287.609 340.079 287.031 331.244 291.072C330.419 290.165 329.758 289.175 329.345 288.351C328.272 286.372 328.024 284.805 328.024 284.805L358.16 284.887C358.16 284.805 357.912 286.372 356.839 288.351Z" fill="#36364F"/>
<path d="M471.354 448.571L201.373 448.818C201.373 448.818 206.409 438.263 213.674 424.327C214.17 423.255 214.748 422.266 215.326 421.194C225.233 402.311 238.526 378.48 248.929 365.616C260.901 350.773 289.22 340.136 308.374 334.363C319.603 330.983 327.694 329.251 327.694 329.251H358.738C358.738 329.251 366.004 330.818 376.324 333.869C395.561 339.558 424.211 351.185 437.503 365.616C440.393 368.832 443.2 372.625 445.76 376.913C462.19 404.125 471.354 448.571 471.354 448.571Z" fill="#D7FFB8"/>
<path opacity="0.5" d="M471.354 448.571L201.373 448.818C201.373 448.818 206.409 438.263 213.674 424.327C348.418 463.908 419.339 399.095 435.604 381.531C438.246 378.727 441.879 376.995 445.677 376.913H445.76C462.19 404.125 471.354 448.571 471.354 448.571Z" fill="#B7FF7F"/>
<path d="M339.17 261.964H347.592" stroke="#2C2C2C" stroke-width="4" stroke-miterlimit="10"/>
<path d="M376.324 333.869C342.886 370.563 308.457 334.363 308.457 334.363C319.686 330.983 327.777 329.251 327.777 329.251H358.738C358.738 329.251 366.086 330.818 376.324 333.869Z" fill="#F8CBC0"/>
<path d="M269.57 407.093V448.901" stroke="#DC831E" stroke-width="3" stroke-miterlimit="10"/>
<path d="M269.57 433.728L258.341 419.38" stroke="#DC831E" stroke-width="3" stroke-miterlimit="10"/>
<path d="M416.367 407.093V448.901" stroke="#C3FF94" stroke-width="3" stroke-miterlimit="10"/>
<path d="M416.367 433.728L426.44 421.029" stroke="#C3FF94" stroke-width="3" stroke-miterlimit="10"/>
<path d="M306.888 350.361C306.888 350.361 348.335 378.645 376.406 348.959" stroke="#C3FF94" stroke-width="3" stroke-miterlimit="10"/>
<path d="M407.8 414.837L407.756 396.195L398.612 411.553H395.372L386.273 396.595V414.837H379.526V383.767H385.474L397.103 403.075L408.555 383.767H414.458L414.547 414.837H407.8Z" fill="white"/>
<path d="M307.466 206.798C316.796 167.712 410.01 172.082 392.589 248.11C387.388 270.869 349.408 196.325 316.631 214.631C314.154 216.033 311.099 215.621 309.118 213.724C307.219 211.91 306.888 209.271 307.466 206.798Z" fill="#F9D880"/>
<path d="M358.655 448.653H358.573C358.325 448.653 358.16 448.653 357.912 448.653H177.099C174.705 448.653 172.558 447.499 171.154 445.767C170.081 444.448 169.503 442.799 169.503 441.067V440.985L141.349 361.493C139.202 355.391 143.743 349.041 150.183 349.041H267.588C271.551 349.041 275.101 351.515 276.422 355.226L306.806 440.82C306.806 440.902 306.888 440.985 306.888 440.985H358.243C362.783 441.067 363.279 448.159 358.655 448.653Z" fill="#D3D2D7"/>
<path d="M216.305 417.077C223.419 414.633 226.782 405.67 223.816 397.058C220.851 388.445 212.679 383.444 205.565 385.887C198.45 388.331 195.087 397.294 198.053 405.907C201.018 414.52 209.19 419.521 216.305 417.077Z" fill="white"/>
<path d="M358.077 441.067H306.723C306.723 441.067 306.723 440.985 306.64 440.902L276.257 355.308C274.936 351.598 271.386 349.124 267.423 349.124H263.46C263.46 349.124 272.212 349.701 274.441 357.535C276.67 365.369 306.64 448.488 306.64 448.488L308.87 448.653H357.912C358.16 448.653 358.408 448.653 358.573 448.653C363.279 448.241 362.783 441.067 358.077 441.067Z" fill="#4B7195"/>
<path opacity="0.4" d="M358.655 448.653H358.573C358.325 448.653 358.16 448.653 357.912 448.653H177.099C174.705 448.653 172.558 447.499 171.154 445.767C277.991 454.92 267.506 349.041 267.506 349.041C271.469 349.041 275.019 351.515 276.34 355.226L306.723 440.82C306.723 440.902 306.806 440.985 306.806 440.985H357.334C357.83 443.623 358.325 446.097 358.655 448.653Z" fill="#B1B1B4"/>
<path d="M143.661 396.209V398.847C138.872 399.425 137.634 403.465 137.634 408.413V410.062C137.634 415.01 138.79 419.05 143.661 419.627V422.266H51.6855C47.8876 422.266 44.8328 419.215 44.8328 415.422V403.053C44.8328 399.26 47.8876 396.209 51.6855 396.209H143.661Z" fill="#1E7AF4"/>
<path d="M142.257 416.906C142.835 418.226 141.762 419.627 140.358 419.627L52.5112 419.71V398.847L140.358 398.93C140.854 398.93 141.349 399.095 141.679 399.425C142.257 399.919 142.588 400.826 142.257 401.651C141.514 403.383 141.514 405.774 141.514 408.495V410.144C141.514 412.783 141.514 415.174 142.257 416.906Z" fill="white"/>
<path opacity="0.4" d="M141.679 399.425C140.028 399.507 62.3361 403.548 56.9694 411.051C55.4833 413.113 53.9146 414.267 52.4285 414.432V398.847L140.276 398.93C140.936 398.93 141.349 399.095 141.679 399.425Z" fill="#A3D5E6"/>
<path d="M57.0511 422.265H49.2902C46.8133 422.265 44.9143 420.286 44.9143 417.895V400.661C44.9143 398.187 46.8958 396.29 49.2902 396.29H57.0511V422.265Z" fill="#1E7AF4"/>
<path opacity="0.4" d="M142.257 416.906C142.835 418.226 141.762 419.627 140.358 419.627H122.772C136.726 418.061 135.817 406.599 135.817 406.599C135.983 406.021 124.837 399.342 125.002 398.847H140.276C140.771 398.847 141.267 399.012 141.597 399.342C142.175 399.837 142.505 400.744 142.175 401.569C141.432 403.3 141.432 405.692 141.432 408.413V410.062C141.514 412.783 141.514 415.175 142.257 416.906Z" fill="#A3D5E6"/>
<path opacity="0.4" d="M141.597 407.753H57.2173V409.65H141.597V407.753Z" fill="#A3D5E6"/>
<path opacity="0.4" d="M141.597 403.465H57.2173V405.362H141.597V403.465Z" fill="#A3D5E6"/>
<path opacity="0.4" d="M141.597 413.113H57.2173V415.01H141.597V413.113Z" fill="#A3D5E6"/>
<path d="M114.351 415.834L109.892 411.299L105.434 415.834V403.465H114.351V415.834Z" fill="#C33E5D"/>
<path d="M153.486 422.184V424.822C148.697 425.4 147.459 429.44 147.459 434.388V436.037C147.459 440.985 148.615 445.025 153.486 445.602V448.241H61.593C57.7951 448.241 54.7402 445.19 54.7402 441.397V429.028C54.7402 425.235 57.7951 422.184 61.593 422.184H153.486Z" fill="#B7FF7F"/>
<path d="M152.082 442.881C152.66 444.2 151.587 445.602 150.183 445.602L62.3359 445.685V424.822L150.183 424.905C150.679 424.905 151.174 425.07 151.504 425.4C152.082 425.894 152.412 426.801 152.082 427.626C151.339 429.358 151.339 431.749 151.339 434.47V436.119C151.422 438.758 151.339 441.149 152.082 442.881Z" fill="white"/>
<path opacity="0.4" d="M151.504 425.317C149.853 425.4 72.161 429.44 66.7944 436.944C65.3083 439.006 63.7396 440.16 62.2534 440.325V424.822L150.101 424.905C150.761 424.822 151.174 425.07 151.504 425.317Z" fill="#A3D5E6"/>
<path d="M66.877 448.24H59.1161C56.6392 448.24 54.7402 446.261 54.7402 443.87V426.635C54.7402 424.162 56.7217 422.265 59.1161 422.265H66.877V448.24Z" fill="#B7FF7F"/>
<path opacity="0.4" d="M152.082 442.881C152.66 444.2 151.587 445.602 150.183 445.602H132.597C146.551 444.036 145.642 432.574 145.642 432.574C145.808 431.996 134.661 425.317 134.827 424.822H150.101C150.596 424.822 151.092 424.987 151.422 425.317C152 425.812 152.33 426.719 152 427.544C151.257 429.275 151.257 431.667 151.257 434.388V436.037C151.422 438.758 151.339 441.149 152.082 442.881Z" fill="#A3D5E6"/>
<path opacity="0.4" d="M151.422 433.728H67.0422V435.625H151.422V433.728Z" fill="#A3D5E6"/>
<path opacity="0.4" d="M151.422 429.44H67.0422V431.337H151.422V429.44Z" fill="#A3D5E6"/>
<path opacity="0.4" d="M151.422 439.088H67.0422V440.984H151.422V439.088Z" fill="#A3D5E6"/>
<path d="M142.175 443.376L137.386 438.676L132.68 443.376V430.43H142.175V443.376Z" fill="#C33E5D"/>
<path d="M598.914 459.538V461.435C598.914 467.289 594.208 471.99 588.346 471.99H48.3005C43.3467 471.99 39.2186 468.609 38.0627 464.156C37.815 463.331 37.7324 462.424 37.7324 461.517V459.621C37.7324 453.766 42.4385 449.066 48.3005 449.066H588.264C594.126 449.066 598.914 453.766 598.914 459.538Z" fill="#3C8BF7"/>
<path opacity="0.5" d="M598.914 459.538V461.435C598.914 467.289 594.208 471.99 588.346 471.99H48.3005C43.3467 471.99 39.2186 468.609 38.0627 464.156C37.815 462.424 37.7324 461.517 37.7324 461.517C340.574 472.072 588.264 449.066 588.264 449.066C594.126 449.066 598.914 453.766 598.914 459.538Z" fill="#006AF2"/>
<path d="M585.374 170.598C585.374 170.515 585.374 170.433 585.374 170.433C585.374 170.35 585.374 170.268 585.374 170.268C586.365 169.773 587.356 169.278 588.346 168.619C589.42 167.877 590.493 167.052 591.484 166.145L591.236 165.32C590.988 164.331 590.658 163.424 590.328 162.517C590.163 162.104 589.915 161.61 589.667 161.197C589.502 160.702 589.254 160.29 588.924 159.878L588.511 159.136C587.19 159.136 585.787 159.301 584.548 159.548C583.392 159.795 582.319 160.125 581.328 160.538L581.081 160.29C581.494 159.301 581.824 158.229 581.989 157.074C582.237 155.837 582.402 154.436 582.402 153.116L581.659 152.704C581.246 152.456 580.833 152.209 580.338 151.962C579.925 151.714 579.429 151.549 579.017 151.302C578.108 150.972 577.2 150.56 576.21 150.395L575.384 150.148C574.393 151.137 573.567 152.209 572.907 153.281C572.246 154.271 571.751 155.26 571.256 156.25C571.173 156.25 571.091 156.25 571.091 156.25C571.008 156.25 570.925 156.25 570.925 156.25C570.513 155.26 569.935 154.271 569.274 153.281C568.531 152.209 567.705 151.137 566.797 150.148L565.972 150.395C564.981 150.56 564.073 150.972 563.165 151.302C562.752 151.467 562.256 151.714 561.844 151.962C561.431 152.127 560.935 152.374 560.523 152.704L559.779 153.116C559.779 154.436 559.945 155.837 560.192 157.074C560.44 158.229 560.77 159.301 561.183 160.29C561.1 160.373 561.018 160.455 560.935 160.538C559.945 160.125 558.789 159.795 557.715 159.548C556.477 159.301 555.073 159.136 553.752 159.136L553.257 159.878C553.009 160.29 552.762 160.702 552.514 161.197C552.349 161.61 552.101 162.104 551.936 162.517C551.606 163.424 551.193 164.331 551.028 165.32L550.78 166.145C551.771 167.134 552.844 167.959 553.917 168.619C554.908 169.278 555.899 169.773 556.89 170.268C556.89 170.35 556.89 170.35 556.89 170.433C556.89 170.515 556.89 170.598 556.89 170.598C555.899 171.01 554.908 171.587 553.917 172.247C552.844 172.989 551.771 173.814 550.78 174.721L551.028 175.545C551.193 176.535 551.606 177.442 551.936 178.349C552.101 178.761 552.349 179.256 552.514 179.668C552.679 180.081 552.927 180.575 553.257 180.988L553.752 181.73C555.073 181.73 556.477 181.565 557.715 181.318C558.871 181.07 559.945 180.74 560.935 180.328C561.018 180.41 561.1 180.493 561.183 180.575C560.77 181.565 560.44 182.637 560.192 183.791C559.945 185.028 559.779 186.43 559.779 187.749L560.523 188.244C560.935 188.492 561.348 188.739 561.844 188.904C562.256 189.151 562.752 189.316 563.165 189.564C564.073 189.893 564.981 190.306 565.972 190.471L566.797 190.718C567.705 189.728 568.614 188.656 569.274 187.584C569.935 186.595 570.43 185.605 570.925 184.616C571.008 184.616 571.091 184.616 571.091 184.616C571.173 184.616 571.256 184.616 571.256 184.616C571.751 185.605 572.246 186.595 572.907 187.584C573.65 188.656 574.476 189.728 575.384 190.718L576.21 190.471C577.2 190.306 578.108 189.893 579.017 189.564C579.512 189.399 579.925 189.151 580.338 188.904C580.75 188.739 581.246 188.492 581.659 188.244L582.402 187.749C582.402 186.43 582.237 185.028 581.989 183.791C581.741 182.637 581.411 181.565 581.081 180.575C581.163 180.493 581.246 180.41 581.328 180.328C582.319 180.74 583.392 181.07 584.548 181.318C585.787 181.565 587.19 181.73 588.511 181.73L588.924 180.988C589.172 180.575 589.42 180.163 589.667 179.668C589.915 179.256 590.08 178.761 590.328 178.349C590.658 177.442 591.071 176.535 591.236 175.545L591.484 174.721C590.493 173.814 589.42 172.907 588.346 172.247C587.356 171.587 586.365 171.092 585.374 170.598ZM571.173 177.195C567.375 177.195 564.32 174.143 564.32 170.35C564.32 166.557 567.375 163.506 571.173 163.506C574.971 163.506 578.026 166.557 578.026 170.35C577.943 174.143 574.971 177.195 571.173 177.195Z" fill="#DFFFC5"/>
<path d="M551.605 180.905H505.7V226.176H518.415" stroke="#DFFFC5" stroke-miterlimit="10" stroke-dasharray="4 4"/>
<path d="M544.753 250.337H519.489V254.872H544.753V250.337Z" fill="white"/>
<path d="M558.376 258.665H519.489V263.2H558.376V258.665Z" fill="white"/>
<path d="M532.699 267.076H519.489V271.611H532.699V267.076Z" fill="white"/>
<path d="M551.358 267.076H538.148V271.611H551.358V267.076Z" fill="#DFFFC5"/>
<path d="M575.136 267.076H556.146V271.611H575.136V267.076Z" fill="#DFFFC5"/>
<path d="M575.136 258.665H563.577V263.2H575.136V258.665Z" fill="#DFFFC5"/>
<path d="M575.136 250.337H549.872V254.872H575.136V250.337Z" fill="#DFFFC5"/>
<path d="M584.383 221.146H583.558V271.446H584.383V221.146Z" fill="white"/>
<path d="M545.909 222.96H519.901V227.578H545.909V222.96Z" fill="white"/>
<path d="M559.862 231.536H519.901V236.154H559.862V231.536Z" fill="white"/>
<path d="M533.524 240.194H519.901V244.812H533.524V240.194Z" fill="white"/>
<path d="M552.679 240.194H539.056V244.812H552.679V240.194Z" fill="#DFFFC5"/>
<path d="M577.118 240.194H557.55V244.812H577.118V240.194Z" fill="#DFFFC5"/>
<path d="M577.118 231.536H565.229V236.154H577.118V231.536Z" fill="#DFFFC5"/>
<path d="M577.118 222.96H551.11V227.578H577.118V222.96Z" fill="#DFFFC5"/>
<path d="M487.289 136.542H412.487V283.321H487.289V136.542Z" fill="#B2D4FF"/>
<path d="M477.133 167.712H420.99V173.649H477.133V167.712Z" fill="white"/>
<path d="M458.144 180.905H420.99V186.842H458.144V180.905Z" fill="white"/>
<path d="M477.134 180.905H463.676V186.842H477.134V180.905Z" fill="#DFFFC5"/>
<path d="M477.134 194.099H442.375V200.036H477.134V194.099Z" fill="#DFFFC5"/>
<path d="M437.255 194.099H420.99V200.036H437.255V194.099Z" fill="white"/>
<path d="M450.713 207.292H420.99V213.23H450.713V207.292Z" fill="white"/>
<path d="M477.134 207.292H455.254V213.23H477.134V207.292Z" fill="#DFFFC5"/>
<path d="M477.216 220.486H437.338V226.423H477.216V220.486Z" fill="#DFFFC5"/>
<path d="M433.045 220.486H420.99V226.423H433.045V220.486Z" fill="white"/>
<path d="M445.099 233.68H420.99V239.617H445.099V233.68Z" fill="white"/>
<path d="M477.133 233.68H449.062V239.617H477.133V233.68Z" fill="#DFFFC5"/>
<path d="M475.482 268.808V270.457L469.373 272.766V271.117L473.666 269.55L469.373 268.148V266.499L475.482 268.808Z" fill="#DFFFC5"/>
<path d="M458.062 266.499V268.066L453.768 269.632L458.062 271.199V272.848L451.952 270.539V268.89L458.062 266.499Z" fill="#DFFFC5"/>
<path d="M465.327 261.964H467.226L462.685 274.992H460.786L465.327 261.964Z" fill="#DFFFC5"/>
<path d="M447.328 154.271V156.497L439.237 159.548V157.404L444.851 155.343L439.237 153.281V151.22L447.328 154.271Z" fill="#DFFFC5"/>
<path d="M432.467 151.22V153.281L426.853 155.343L432.467 157.404V159.548L424.376 156.497V154.271L432.467 151.22Z" fill="#DFFFC5"/>
<path d="M424.534 113.637V124.446H420.884V120.462H417.513V124.446H413.864V113.637H417.513V117.467H420.884V113.637H424.534Z" fill="#2C2C2C"/>
<path d="M428.643 116.463H425.473V113.637H435.462V116.463H432.292V124.446H428.643V116.463Z" fill="#2C2C2C"/>
<path d="M446.075 124.446L446.044 119.52L443.694 123.473H442.085L439.735 119.69V124.446H436.41V113.637H439.41L442.936 119.397L446.369 113.637H449.369L449.4 124.446H446.075Z" fill="#2C2C2C"/>
<path d="M451.164 113.637H454.814V121.62H459.7V124.446H451.164V113.637Z" fill="#2C2C2C"/>
<path d="M66.3817 286.867C64.813 285.382 62.9966 284.145 61.0977 283.238C61.0977 283.238 61.0151 283.238 61.0151 283.156C58.2905 281.919 55.2357 281.342 52.1808 281.507C50.1168 281.589 47.9701 282.084 45.9886 282.908C45.8235 282.991 45.7409 282.991 45.5758 283.073C41.943 284.723 39.0533 287.361 37.1543 290.495C34.0995 295.607 33.5216 302.039 36.081 307.811C40.2917 317.294 51.4378 321.5 60.85 317.294C69.5191 313.419 73.8124 303.771 71.2529 294.948C71.0052 294.123 70.7576 293.381 70.3447 292.556C69.4365 290.412 68.033 288.516 66.3817 286.867ZM58.5382 312.182C52.0157 315.068 44.2548 312.182 41.3651 305.585C39.6312 301.709 39.9615 297.421 41.943 293.958C41.943 293.958 41.943 293.876 42.0256 293.876C43.3466 291.567 45.4107 289.588 48.0527 288.433C48.5481 288.186 49.0434 288.021 49.5388 287.856C49.6214 287.856 49.6214 287.856 49.7039 287.774C52.346 287.031 54.988 287.114 57.4649 287.938C59.6115 288.681 61.5105 289.918 62.9966 291.567C63.9048 292.556 64.6479 293.711 65.2258 294.948C65.5561 295.772 65.8038 296.514 66.0515 297.339C67.2899 303.359 64.3176 309.625 58.5382 312.182Z" fill="#B7FF7F"/>
<path d="M61.0977 283.238C63.0792 284.145 64.8131 285.382 66.3818 286.867C68.033 288.433 69.354 290.412 70.3448 292.639C70.675 293.463 71.0053 294.206 71.253 295.03L65.8864 297.421C65.7213 296.597 65.4736 295.772 65.0607 295.03C64.4828 293.793 63.7397 292.639 62.8315 291.649C61.3454 290 59.3639 288.681 57.2998 288.021L60.9326 283.321" fill="#DFFFC5"/>
<path d="M57.3822 287.939C54.9053 287.114 52.1808 287.031 49.6213 287.774C49.5387 287.774 49.5387 287.774 49.4562 287.856L45.9885 282.991C48.0526 282.166 50.1167 281.672 52.1808 281.589C55.2356 281.424 58.2904 282.001 61.015 283.238" fill="#1E7AF4"/>
<path d="M54.7402 319.026V320.675" stroke="#C7F5A4" stroke-miterlimit="10"/>
<path d="M54.7402 323.809V347.475" stroke="#C7F5A4" stroke-miterlimit="10" stroke-dasharray="3.83 3.83"/>
<path d="M54.7402 349.124V350.773H56.3915" stroke="#C7F5A4" stroke-miterlimit="10"/>
<path d="M59.7766 350.773H105.682" stroke="#C7F5A4" stroke-miterlimit="10" stroke-dasharray="4.12 4.12"/>
<path d="M107.333 350.773H108.984V349.124" stroke="#C7F5A4" stroke-miterlimit="10"/>
<path d="M108.984 345.908V321.83" stroke="#C7F5A4" stroke-miterlimit="10" stroke-dasharray="3.89 3.89"/>
<path d="M108.984 320.18V318.531" stroke="#C7F5A4" stroke-miterlimit="10"/>
<path d="M248.351 127.389H89.1692V316.965H248.351V127.389Z" fill="#B2D4FF"/>
<path d="M248.351 118.153H89.1692V142.231H248.351V118.153Z" fill="#3C8BF6"/>
<path d="M230.022 303.936V305.503L224.325 307.646V306.162L228.371 304.678L224.325 303.194V301.709L230.022 303.936Z" fill="#DFFFC5"/>
<path d="M213.674 301.792V303.276L209.629 304.76L213.674 306.245V307.729L207.978 305.585V304.018L213.674 301.792Z" fill="#DFFFC5"/>
<path d="M221.288 297.37H223.458L218.307 312.076H216.137L221.288 297.37Z" fill="#DFFFC5"/>
<path d="M126.901 157.569V159.548L119.8 162.269V160.373L124.837 158.558L119.8 156.744V154.848L126.901 157.569Z" fill="#DFFFC5"/>
<path d="M113.773 154.848V156.744L108.737 158.558L113.773 160.373V162.269L106.673 159.548V157.569L113.773 154.848Z" fill="#DFFFC5"/>
<path d="M112.085 126.856L109.425 134.977H107.403L105.614 129.478L103.767 134.977H101.757L99.0847 126.856H101.037L102.872 132.564L104.789 126.856H106.532L108.391 132.61L110.284 126.856H112.085Z" fill="white"/>
<path d="M119.433 133.469V134.977H113.136V126.856H119.282V128.364H115.006V130.128H118.782V131.589H115.006V133.469H119.433Z" fill="white"/>
<path d="M126.902 130.754C127.366 130.901 127.73 131.149 127.994 131.497C128.257 131.837 128.389 132.258 128.389 132.761C128.389 133.473 128.11 134.022 127.552 134.408C127.002 134.787 126.197 134.977 125.136 134.977H120.93V126.856H124.903C125.895 126.856 126.654 127.046 127.181 127.425C127.715 127.804 127.982 128.318 127.982 128.968C127.982 129.362 127.885 129.714 127.692 130.023C127.506 130.333 127.242 130.576 126.902 130.754ZM122.801 128.272V130.186H124.671C125.136 130.186 125.488 130.105 125.728 129.942C125.968 129.78 126.088 129.54 126.088 129.223C126.088 128.906 125.968 128.67 125.728 128.515C125.488 128.353 125.136 128.272 124.671 128.272H122.801ZM124.996 133.562C125.492 133.562 125.864 133.48 126.112 133.318C126.367 133.155 126.495 132.904 126.495 132.564C126.495 131.891 125.995 131.555 124.996 131.555H122.801V133.562H124.996Z" fill="white"/>
<path d="M133.104 126.856H136.798C137.681 126.856 138.46 127.027 139.134 127.367C139.815 127.699 140.342 128.171 140.714 128.782C141.093 129.393 141.283 130.105 141.283 130.917C141.283 131.729 141.093 132.44 140.714 133.051C140.342 133.662 139.815 134.138 139.134 134.478C138.46 134.811 137.681 134.977 136.798 134.977H133.104V126.856ZM136.705 133.434C137.519 133.434 138.165 133.21 138.646 132.761C139.134 132.305 139.377 131.69 139.377 130.917C139.377 130.143 139.134 129.532 138.646 129.084C138.165 128.627 137.519 128.399 136.705 128.399H134.986V133.434H136.705Z" fill="white"/>
<path d="M148.999 133.469V134.977H142.702V126.856H148.848V128.364H144.573V130.128H148.348V131.589H144.573V133.469H148.999Z" fill="white"/>
<path d="M158.202 126.856L154.682 134.977H152.823L149.314 126.856H151.347L153.822 132.657L156.331 126.856H158.202Z" fill="white"/>
<path d="M165.178 133.469V134.977H158.881V126.856H165.027V128.364H160.751V130.128H164.527V131.589H160.751V133.469H165.178Z" fill="white"/>
<path d="M166.675 126.856H168.557V133.446H172.635V134.977H166.675V126.856Z" fill="white"/>
<path d="M177.489 135.116C176.645 135.116 175.882 134.934 175.2 134.571C174.527 134.207 173.996 133.708 173.609 133.074C173.229 132.432 173.039 131.713 173.039 130.917C173.039 130.12 173.229 129.405 173.609 128.77C173.996 128.129 174.527 127.626 175.2 127.262C175.882 126.899 176.645 126.717 177.489 126.717C178.333 126.717 179.092 126.899 179.766 127.262C180.44 127.626 180.971 128.129 181.358 128.77C181.745 129.405 181.939 130.12 181.939 130.917C181.939 131.713 181.745 132.432 181.358 133.074C180.971 133.708 180.44 134.207 179.766 134.571C179.092 134.934 178.333 135.116 177.489 135.116ZM177.489 133.515C177.969 133.515 178.403 133.407 178.79 133.19C179.178 132.966 179.48 132.657 179.696 132.262C179.921 131.868 180.033 131.419 180.033 130.917C180.033 130.414 179.921 129.965 179.696 129.571C179.48 129.176 179.178 128.871 178.79 128.654C178.403 128.43 177.969 128.318 177.489 128.318C177.009 128.318 176.575 128.43 176.188 128.654C175.801 128.871 175.495 129.176 175.27 129.571C175.053 129.965 174.945 130.414 174.945 130.917C174.945 131.419 175.053 131.868 175.27 132.262C175.495 132.657 175.801 132.966 176.188 133.19C176.575 133.407 177.009 133.515 177.489 133.515Z" fill="white"/>
<path d="M186.873 126.856C187.594 126.856 188.217 126.976 188.744 127.216C189.278 127.456 189.689 127.796 189.975 128.237C190.262 128.678 190.405 129.2 190.405 129.803C190.405 130.398 190.262 130.92 189.975 131.369C189.689 131.81 189.278 132.15 188.744 132.39C188.217 132.622 187.594 132.738 186.873 132.738H185.235V134.977H183.353V126.856H186.873ZM186.769 131.207C187.334 131.207 187.764 131.087 188.058 130.847C188.353 130.599 188.5 130.251 188.5 129.803C188.5 129.347 188.353 128.999 188.058 128.759C187.764 128.511 187.334 128.388 186.769 128.388H185.235V131.207H186.769Z" fill="white"/>
<path d="M191.749 126.856H193.631V134.977H191.749V126.856Z" fill="white"/>
<path d="M203.02 126.856V134.977H201.474L197.42 130.047V134.977H195.561V126.856H197.118L201.161 131.787V126.856H203.02Z" fill="white"/>
<path d="M210.439 130.789H212.158V134.084C211.717 134.416 211.206 134.671 210.625 134.849C210.044 135.027 209.459 135.116 208.871 135.116C208.026 135.116 207.267 134.938 206.593 134.582C205.92 134.219 205.389 133.72 205.002 133.086C204.622 132.444 204.433 131.721 204.433 130.917C204.433 130.112 204.622 129.393 205.002 128.759C205.389 128.117 205.924 127.618 206.605 127.262C207.287 126.899 208.053 126.717 208.905 126.717C209.618 126.717 210.265 126.837 210.846 127.077C211.426 127.317 211.914 127.665 212.309 128.121L211.101 129.234C210.52 128.624 209.819 128.318 208.998 128.318C208.479 128.318 208.019 128.426 207.616 128.643C207.213 128.859 206.899 129.165 206.675 129.559C206.45 129.954 206.338 130.406 206.338 130.917C206.338 131.419 206.45 131.868 206.675 132.262C206.899 132.657 207.209 132.966 207.604 133.19C208.007 133.407 208.464 133.515 208.975 133.515C209.517 133.515 210.005 133.399 210.439 133.167V130.789Z" fill="white"/>
<path d="M163.558 173.814H116.745V182.39H163.558V173.814Z" fill="#75B0FF"/>
<path d="M193.446 173.814H170.081V182.39H193.446V173.814Z" fill="#DFFFC5"/>
<path d="M231.095 173.814H198.896V182.39H231.095V173.814Z" fill="white"/>
<path d="M138.624 189.069H116.745V197.645H138.624V189.069Z" fill="#75B0FF"/>
<path d="M181.805 189.069H144.486V197.645H181.805V189.069Z" fill="#DFFFC5"/>
<path d="M231.178 189.069H187.915V197.645H231.178V189.069Z" fill="white"/>
<path d="M145.477 204.324H116.745V212.9H145.477V204.324Z" fill="#75B0FF"/>
<path d="M204.262 204.324H150.183V212.9H204.262V204.324Z" fill="#DFFFC5"/>
<path d="M231.178 204.324H210.042V212.9H231.178V204.324Z" fill="white"/>
<path d="M152.99 219.661H116.745V228.237H152.99V219.661Z" fill="#75B0FF"/>
<path d="M193.529 219.661H158.357V228.237H193.529V219.661Z" fill="#DFFFC5"/>
<path d="M231.095 219.661H198.896V228.237H231.095V219.661Z" fill="white"/>
<path d="M132.68 234.917H116.745V243.493H132.68V234.917Z" fill="#75B0FF"/>
<path d="M169.503 234.917H137.964V243.493H169.503V234.917Z" fill="#DFFFC5"/>
<path d="M231.178 234.917H174.374V243.493H231.178V234.917Z" fill="white"/>
<path d="M162.237 250.172H116.745V258.748H162.237V250.172Z" fill="#75B0FF"/>
<path d="M181.805 250.172H167.852V258.748H181.805V250.172Z" fill="#DFFFC5"/>
<path d="M231.178 250.172H187.915V258.748H231.178V250.172Z" fill="white"/>
<path d="M175.943 265.509H116.745V274.085H175.943V265.509Z" fill="#75B0FF"/>
<path d="M205.088 265.509H180.897V274.085H205.088V265.509Z" fill="#DFFFC5"/>
<path d="M231.178 265.509H210.042V274.085H231.178V265.509Z" fill="white"/>
<path d="M134.909 280.765H116.745V289.34H134.909V280.765Z" fill="#75B0FF"/>
<path d="M162.155 280.765H140.111V289.34H162.155V280.765Z" fill="#DFFFC5"/>
<path d="M231.178 280.765H167.852V289.34H231.178V280.765Z" fill="white"/>
<path d="M239.104 173.814H237.37V289.34H239.104V173.814Z" fill="white"/>
<path d="M101.966 182.307C104.337 182.307 106.26 180.387 106.26 178.019C106.26 175.651 104.337 173.731 101.966 173.731C99.5953 173.731 97.6731 175.651 97.6731 178.019C97.6731 180.387 99.5953 182.307 101.966 182.307Z" fill="white"/>
<path d="M101.966 197.645C104.337 197.645 106.26 195.725 106.26 193.357C106.26 190.989 104.337 189.069 101.966 189.069C99.5953 189.069 97.6731 190.989 97.6731 193.357C97.6731 195.725 99.5953 197.645 101.966 197.645Z" fill="white"/>
<path d="M101.966 212.9C104.337 212.9 106.26 210.98 106.26 208.612C106.26 206.244 104.337 204.324 101.966 204.324C99.5953 204.324 97.6731 206.244 97.6731 208.612C97.6731 210.98 99.5953 212.9 101.966 212.9Z" fill="white"/>
<path d="M101.966 228.155C104.337 228.155 106.26 226.235 106.26 223.867C106.26 221.499 104.337 219.579 101.966 219.579C99.5953 219.579 97.6731 221.499 97.6731 223.867C97.6731 226.235 99.5953 228.155 101.966 228.155Z" fill="white"/>
<path d="M101.966 243.492C104.337 243.492 106.26 241.573 106.26 239.205C106.26 236.836 104.337 234.917 101.966 234.917C99.5953 234.917 97.6731 236.836 97.6731 239.205C97.6731 241.573 99.5953 243.492 101.966 243.492Z" fill="white"/>
<path d="M101.966 258.748C104.337 258.748 106.26 256.828 106.26 254.46C106.26 252.092 104.337 250.172 101.966 250.172C99.5953 250.172 97.6731 252.092 97.6731 254.46C97.6731 256.828 99.5953 258.748 101.966 258.748Z" fill="white"/>
<path d="M101.966 274.003C104.337 274.003 106.26 272.083 106.26 269.715C106.26 267.347 104.337 265.427 101.966 265.427C99.5953 265.427 97.6731 267.347 97.6731 269.715C97.6731 272.083 99.5953 274.003 101.966 274.003Z" fill="white"/>
<path d="M101.966 289.34C104.337 289.34 106.26 287.42 106.26 285.052C106.26 282.684 104.337 280.764 101.966 280.764C99.5953 280.764 97.6731 282.684 97.6731 285.052C97.6731 287.42 99.5953 289.34 101.966 289.34Z" fill="white"/>
<path d="M241.333 131.512C241.333 133.903 239.352 135.882 236.957 135.882C234.563 135.882 232.582 133.903 232.582 131.512C232.582 129.12 234.563 127.141 236.957 127.141C239.352 127.141 241.333 129.12 241.333 131.512Z" fill="#B7FF7F"/>
<path d="M230.517 131.429C230.517 133.82 228.536 135.799 226.141 135.799C223.747 135.799 221.766 133.82 221.766 131.429C221.766 129.038 223.747 127.059 226.141 127.059C228.536 127.059 230.517 128.955 230.517 131.429Z" fill="white"/>
<path d="M285.009 149.653H269.57V153.941H285.009V149.653Z" fill="#47547C"/>
<path d="M316.796 141.984H269.57V146.272H316.796V141.984Z" fill="#64648E"/>
<path d="M296.898 154.848V156.497" stroke="#DFFFC5" stroke-miterlimit="10"/>
<path d="M296.898 159.218V169.031" stroke="#DFFFC5" stroke-miterlimit="10" stroke-dasharray="3.38 3.38"/>
<path d="M296.898 170.35V172H298.549" stroke="#DFFFC5" stroke-miterlimit="10"/>
<path d="M301.687 172H350.399" stroke="#DFFFC5" stroke-miterlimit="10" stroke-dasharray="3.81 3.81"/>
<path d="M351.968 172H353.619V170.35" stroke="#DFFFC5" stroke-miterlimit="10"/>
<path d="M353.619 167.052V162.022" stroke="#DFFFC5" stroke-miterlimit="10" stroke-dasharray="4.06 4.06"/>
<path d="M353.619 160.373V158.724" stroke="#DFFFC5" stroke-miterlimit="10"/>
<path d="M276.028 130.651C274.884 130.641 273.855 130.395 272.942 129.914C272.028 129.422 271.313 128.747 270.794 127.888C270.287 127.018 270.038 126.038 270.047 124.947C270.057 123.856 270.323 122.886 270.846 122.036C271.379 121.176 272.107 120.513 273.029 120.047C273.95 119.572 274.983 119.339 276.128 119.349C277.179 119.358 278.116 119.552 278.937 119.93C279.758 120.307 280.434 120.849 280.964 121.553L278.642 123.587C277.979 122.737 277.194 122.308 276.287 122.3C275.524 122.293 274.909 122.535 274.441 123.025C273.972 123.504 273.735 124.156 273.727 124.979C273.72 125.803 273.946 126.464 274.406 126.962C274.865 127.45 275.477 127.697 276.24 127.704C277.147 127.712 277.939 127.297 278.617 126.458L280.903 128.532C280.36 129.227 279.675 129.757 278.847 130.12C278.019 130.483 277.08 130.66 276.028 130.651Z" fill="#2C2C2C"/>
<path d="M285.822 130.737C284.925 130.729 284.05 130.624 283.196 130.421C282.352 130.207 281.659 129.929 281.116 129.584L282.314 126.939C282.827 127.242 283.402 127.489 284.04 127.68C284.677 127.86 285.29 127.953 285.877 127.958C286.383 127.963 286.744 127.92 286.961 127.829C287.179 127.728 287.288 127.579 287.29 127.384C287.292 127.157 287.149 126.986 286.861 126.871C286.584 126.755 286.121 126.627 285.473 126.488C284.639 126.305 283.945 126.114 283.39 125.914C282.835 125.703 282.354 125.369 281.945 124.913C281.537 124.446 281.336 123.821 281.343 123.039C281.349 122.36 281.545 121.744 281.932 121.191C282.318 120.639 282.889 120.206 283.644 119.894C284.41 119.581 285.334 119.43 286.416 119.439C287.159 119.446 287.885 119.535 288.595 119.705C289.315 119.866 289.947 120.103 290.49 120.417L289.369 123.048C288.312 122.503 287.309 122.227 286.361 122.218C285.423 122.21 284.952 122.432 284.948 122.885C284.946 123.101 285.084 123.267 285.361 123.383C285.638 123.488 286.096 123.606 286.734 123.735C287.558 123.896 288.252 124.083 288.817 124.294C289.382 124.494 289.869 124.823 290.277 125.279C290.696 125.736 290.902 126.355 290.895 127.138C290.889 127.817 290.693 128.433 290.307 128.985C289.92 129.528 289.344 129.96 288.579 130.283C287.823 130.595 286.904 130.747 285.822 130.737Z" fill="#2C2C2C"/>
<path d="M295.985 130.826C295.088 130.819 294.213 130.713 293.359 130.51C292.515 130.297 291.822 130.018 291.278 129.673L292.477 127.028C292.99 127.331 293.565 127.578 294.202 127.769C294.84 127.949 295.453 128.042 296.04 128.047C296.545 128.052 296.907 128.009 297.124 127.918C297.341 127.817 297.451 127.669 297.453 127.473C297.455 127.247 297.312 127.076 297.024 126.96C296.747 126.844 296.284 126.716 295.636 126.577C294.802 126.395 294.108 126.203 293.553 126.003C292.998 125.792 292.517 125.458 292.108 125.002C291.7 124.535 291.499 123.91 291.506 123.128C291.512 122.449 291.708 121.833 292.095 121.28C292.481 120.728 293.052 120.295 293.807 119.983C294.573 119.67 295.497 119.519 296.579 119.528C297.321 119.535 298.048 119.624 298.757 119.795C299.478 119.955 300.11 120.193 300.653 120.506L299.532 123.137C298.475 122.592 297.472 122.316 296.524 122.307C295.586 122.299 295.115 122.522 295.111 122.974C295.109 123.191 295.247 123.357 295.524 123.472C295.801 123.578 296.259 123.695 296.897 123.824C297.72 123.986 298.415 124.172 298.98 124.383C299.545 124.583 300.032 124.912 300.44 125.368C300.859 125.825 301.065 126.444 301.058 127.227C301.052 127.906 300.856 128.522 300.47 129.075C300.083 129.617 299.507 130.049 298.742 130.372C297.986 130.684 297.067 130.836 295.985 130.826Z" fill="#2C2C2C"/>
<path d="M366.168 141.16C366.003 140.582 365.838 140.005 365.59 139.51C364.929 137.944 363.939 136.624 362.783 135.552C361.709 134.48 360.471 133.656 359.15 132.996H359.067C357.168 132.171 355.104 131.759 352.958 131.842C351.472 131.924 350.068 132.254 348.664 132.831C348.582 132.831 348.499 132.914 348.417 132.914C345.857 134.068 343.876 135.882 342.555 138.109C340.903 140.83 340.243 144.128 340.903 147.344C341.069 148.251 341.399 149.158 341.812 150.065C344.701 156.58 352.462 159.548 358.985 156.662C362.948 154.848 365.672 151.302 366.416 147.344C366.828 145.283 366.746 143.221 366.168 141.16ZM357.334 153.034C352.793 155.095 347.426 153.034 345.362 148.498C345.197 148.086 345.032 147.756 344.949 147.344C344.206 144.953 344.619 142.479 345.775 140.417C345.775 140.417 345.775 140.417 345.775 140.335C346.683 138.686 348.086 137.366 349.903 136.542C350.233 136.377 350.563 136.294 350.976 136.129H351.059C352.875 135.635 354.774 135.635 356.425 136.212C357.912 136.707 359.233 137.531 360.306 138.768C360.884 139.428 361.462 140.252 361.875 141.16C362.122 141.737 362.287 142.232 362.452 142.809C362.783 144.375 362.7 145.942 362.287 147.344C361.544 149.735 359.81 151.879 357.334 153.034Z" fill="#B7FF7F"/>
<path d="M366.417 147.344H362.288C362.701 145.86 362.784 144.293 362.454 142.809C362.288 142.232 362.123 141.654 361.876 141.16C361.463 140.252 360.967 139.51 360.307 138.768C359.234 137.614 357.913 136.707 356.426 136.212C354.693 135.635 352.876 135.552 351.06 136.129H350.977C350.647 136.212 350.317 136.377 349.904 136.542C348.088 137.366 346.684 138.686 345.776 140.335C345.776 140.335 345.776 140.335 345.776 140.417C344.62 142.479 344.29 144.953 344.95 147.344H340.822C340.161 144.128 340.822 140.83 342.473 138.109C343.794 135.882 345.776 134.068 348.335 132.914C348.418 132.914 348.5 132.831 348.583 132.831C349.986 132.254 351.473 131.924 352.876 131.842C355.023 131.759 357.087 132.171 358.986 132.996H359.068C360.389 133.573 361.628 134.48 362.701 135.552C363.857 136.624 364.765 138.026 365.508 139.51C365.756 140.088 365.921 140.582 366.086 141.16C366.747 143.221 366.829 145.283 366.417 147.344Z" fill="#1E7AF4"/>
<path d="M316.796 149.653H288.147V153.941H316.796V149.653Z" fill="#64648E"/>
<path d="M54.6726 127.033C54.6726 127.959 54.5233 128.665 54.2247 129.152C53.9261 129.639 53.4389 129.984 52.7631 130.188C53.4389 130.392 53.9261 130.738 54.2247 131.224C54.5233 131.711 54.6726 132.417 54.6726 133.344V135.581C54.6726 136.099 54.814 136.499 55.0969 136.782C55.3798 137.064 55.7962 137.206 56.3463 137.206H56.582V141.209H54.8376C53.0303 141.209 51.6631 140.777 50.7358 139.914C49.8086 139.05 49.345 137.81 49.345 136.193V133.226C49.345 132.881 49.2507 132.622 49.0622 132.449C48.8893 132.276 48.6457 132.19 48.3314 132.19H47.5535V128.187H48.3314C48.6457 128.187 48.8893 128.1 49.0622 127.928C49.2507 127.755 49.345 127.496 49.345 127.151V124.183C49.345 122.567 49.8086 121.326 50.7358 120.463C51.6631 119.599 53.0303 119.168 54.8376 119.168H56.582V123.171H56.3463C55.7962 123.171 55.3798 123.312 55.0969 123.595C54.814 123.877 54.6726 124.278 54.6726 124.796V127.033Z" fill="#323247"/>
<path d="M73.1606 128.187V132.19H72.3827C72.0683 132.19 71.8169 132.276 71.6283 132.449C71.4554 132.622 71.369 132.881 71.369 133.226V136.193C71.369 137.81 70.9054 139.05 69.9782 139.914C69.051 140.777 67.6837 141.209 65.8765 141.209H64.132V137.206H64.3678C64.9178 137.206 65.3343 137.064 65.6172 136.782C65.9 136.499 66.0415 136.099 66.0415 135.581V133.344C66.0415 132.417 66.1908 131.711 66.4894 131.224C66.788 130.738 67.2751 130.392 67.9509 130.188C67.2751 129.984 66.788 129.639 66.4894 129.152C66.1908 128.665 66.0415 127.959 66.0415 127.033V124.796C66.0415 124.278 65.9 123.877 65.6172 123.595C65.3343 123.312 64.9178 123.171 64.3678 123.171H64.132V119.168H65.8765C67.6837 119.168 69.051 119.599 69.9782 120.463C70.9054 121.326 71.369 122.567 71.369 124.183V127.151C71.369 127.496 71.4554 127.755 71.6283 127.928C71.8169 128.1 72.0683 128.187 72.3827 128.187H73.1606Z" fill="#323247"/>
<path d="M63.1618 160.867H46.2363V168.949H63.1618V160.867Z" fill="white"/>
<path d="M63.1618 175.051H46.2363V183.132H63.1618V175.051Z" fill="white"/>
<path d="M63.1618 189.151H46.2363V197.232H63.1618V189.151Z" fill="#DFFFC5"/>
<path d="M63.1618 203.252H46.2363V211.333H63.1618V203.252Z" fill="#DFFFC5"/>
<path d="M63.1618 217.353H46.2363V225.434H63.1618V217.353Z" fill="#DFFFC5"/>
<path d="M63.1618 231.536H46.2363V239.617H63.1618V231.536Z" fill="#DFFFC5"/>
<path d="M63.1618 245.636H46.2363V253.718H63.1618V245.636Z" fill="#DFFFC5"/>
<path d="M542.441 319.851C542.441 319.768 542.441 319.768 542.441 319.686C542.441 319.603 542.441 319.603 542.441 319.521C543.267 319.108 544.175 318.696 545.001 318.119C545.909 317.542 546.817 316.8 547.643 315.975L547.477 315.233C547.312 314.408 546.982 313.666 546.734 312.841C546.569 312.429 546.404 312.099 546.239 311.687C546.074 311.275 545.826 310.945 545.661 310.615L545.248 309.955C544.092 309.955 542.937 310.12 541.863 310.285C540.872 310.45 539.964 310.78 539.139 311.11L538.891 310.862C539.221 309.955 539.469 309.048 539.717 308.141C539.882 307.069 540.047 305.915 540.047 304.76L539.386 304.348C539.056 304.101 538.643 303.936 538.313 303.771C537.9 303.606 537.57 303.359 537.157 303.276C536.331 303.029 535.588 302.699 534.763 302.534L534.02 302.369C533.194 303.194 532.451 304.101 531.873 305.008C531.295 305.832 530.882 306.657 530.469 307.564C530.387 307.564 530.387 307.564 530.304 307.564C530.222 307.564 530.222 307.564 530.139 307.564C529.726 306.739 529.314 305.832 528.736 305.008C528.158 304.101 527.415 303.194 526.589 302.369L525.846 302.534C525.02 302.699 524.277 303.029 523.452 303.276C523.039 303.441 522.709 303.606 522.296 303.771C521.883 303.936 521.553 304.183 521.222 304.348L520.562 304.76C520.562 305.915 520.727 307.069 520.892 308.141C521.057 309.131 521.388 310.038 521.718 310.862C521.635 310.945 521.553 311.027 521.47 311.11C520.562 310.78 519.654 310.533 518.745 310.285C517.672 310.12 516.516 309.955 515.36 309.955L514.948 310.615C514.7 310.945 514.535 311.357 514.37 311.687C514.205 312.099 514.039 312.429 513.874 312.841C513.544 313.666 513.296 314.408 513.131 315.233L512.966 315.975C513.792 316.8 514.7 317.542 515.608 318.119C516.434 318.696 517.259 319.108 518.168 319.521C518.168 319.603 518.168 319.603 518.168 319.686C518.168 319.768 518.168 319.768 518.168 319.851C517.342 320.263 516.434 320.675 515.608 321.252C514.7 321.83 513.792 322.572 512.966 323.396L513.131 324.139C513.296 324.963 513.627 325.705 513.874 326.53C514.039 326.942 514.205 327.272 514.37 327.684C514.535 328.097 514.782 328.426 514.948 328.756L515.36 329.416C516.516 329.416 517.672 329.251 518.745 329.086C519.736 328.921 520.644 328.591 521.47 328.262C521.553 328.344 521.635 328.426 521.718 328.509C521.388 329.416 521.14 330.323 520.892 331.23C520.727 332.302 520.562 333.457 520.562 334.611L521.222 335.023C521.553 335.271 521.965 335.436 522.296 335.6C522.709 335.765 523.039 336.013 523.452 336.095C524.277 336.425 525.02 336.672 525.846 336.837L526.589 337.002C527.415 336.178 528.158 335.271 528.736 334.364C529.314 333.539 529.726 332.714 530.139 331.807C530.222 331.807 530.222 331.807 530.304 331.807C530.387 331.807 530.387 331.807 530.469 331.807C530.882 332.632 531.295 333.539 531.873 334.364C532.451 335.271 533.194 336.178 534.02 337.002L534.763 336.837C535.588 336.672 536.331 336.343 537.157 336.095C537.57 335.93 537.9 335.765 538.313 335.6C538.726 335.436 539.056 335.188 539.386 335.023L540.047 334.611C540.047 333.457 539.882 332.302 539.717 331.23C539.551 330.241 539.221 329.334 538.891 328.509C538.973 328.426 539.056 328.344 539.139 328.262C540.047 328.591 540.955 328.839 541.863 329.086C542.937 329.251 544.092 329.416 545.248 329.416L545.661 328.756C545.909 328.426 546.074 328.014 546.239 327.684C546.404 327.272 546.652 326.942 546.734 326.53C546.982 325.705 547.312 324.963 547.477 324.139L547.643 323.396C546.817 322.572 545.909 321.83 545.001 321.252C544.092 320.675 543.267 320.263 542.441 319.851ZM530.222 325.458C527.002 325.458 524.36 322.819 524.36 319.603C524.36 316.387 527.002 313.749 530.222 313.749C533.442 313.749 536.084 316.387 536.084 319.603C536.084 322.902 533.442 325.458 530.222 325.458Z" fill="#323247"/>
<path d="M488.858 298.246H481.179V332.879H488.858V298.246Z" fill="#1E7AF4"/>
<path d="M478.125 313.501H469.868V332.879H478.125V313.501Z" fill="#B2D4FF"/>
<path d="M466.648 319.686H458.392V332.879H466.648V319.686Z" fill="#DFFFC5"/>
<path d="M456.988 327.354H455.337" stroke="#DFFFC5" stroke-miterlimit="10"/>
<path d="M451.126 327.354H444.852" stroke="#DFFFC5" stroke-miterlimit="10" stroke-dasharray="5.07 5.07"/>
<path d="M442.787 327.354H441.136V329.004" stroke="#DFFFC5" stroke-miterlimit="10"/>
<path d="M441.136 332.055V355.226" stroke="#DFFFC5" stroke-miterlimit="10" stroke-dasharray="3.74 3.74"/>
<path d="M441.136 356.71V358.359H442.787" stroke="#DFFFC5" stroke-miterlimit="10"/>
<path d="M445.595 358.359H455.337" stroke="#DFFFC5" stroke-miterlimit="10" stroke-dasharray="3.4 3.4"/>
<path d="M456.741 358.359H458.392" stroke="#DFFFC5" stroke-miterlimit="10"/>
<path d="M482.831 356.875H461.034V360.751H482.831V356.875Z" fill="white"/>
<path d="M476.143 364.049H461.034V367.925H476.143V364.049Z" fill="white"/>
<path d="M480.106 371.223H461.034V375.099H480.106V371.223Z" fill="white"/>
<path d="M488.527 371.223H484.069V375.099H488.527V371.223Z" fill="#DFFFC5"/>
<path d="M509.086 371.223H492.656V375.099H509.086V371.223Z" fill="#DFFFC5"/>
<path d="M509.003 364.049H480.932V367.925H509.003V364.049Z" fill="#DFFFC5"/>
<path d="M509.003 356.875H487.207V360.751H509.003V356.875Z" fill="#DFFFC5"/>
<path d="M583.888 317.542H569.522V324.386H583.888V317.542Z" fill="#75B0FF"/>
<path d="M583.888 329.498H569.522V336.342H583.888V329.498Z" fill="#75B0FF"/>
<path d="M583.888 341.538H569.522V348.382H583.888V341.538Z" fill="#75B0FF"/>
<path d="M583.888 353.494H569.522V360.338H583.888V353.494Z" fill="#75B0FF"/>
<path d="M583.888 365.451H569.522V372.295H583.888V365.451Z" fill="white"/>
<path d="M583.888 377.408H569.522V384.252H583.888V377.408Z" fill="white"/>
<path d="M583.888 389.365H569.522V396.209H583.888V389.365Z" fill="white"/>
<path d="M521.222 415.914C515.856 416.327 511.315 415.007 507.599 412.698C492.408 403.298 489.27 376.911 489.023 374.932C489.188 375.509 490.674 378.807 506.444 389.362C507.765 390.269 508.92 391.176 510.076 392.083C510.076 392.083 510.076 392.083 510.159 392.166C523.782 403.38 521.222 415.914 521.222 415.914Z" fill="#0C8068"/>
<path d="M489.023 374.769C489.023 374.769 503.224 409.485 518.911 413.113" stroke="#0A6D53" stroke-miterlimit="10"/>
<path opacity="0.5" d="M521.222 415.917C515.856 416.329 511.315 415.01 507.599 412.701C510.654 405.527 510.076 392.003 510.076 392.003C510.076 392.003 510.076 392.003 510.159 392.086C523.782 403.383 521.222 415.917 521.222 415.917Z" fill="#0A6D53"/>
<path d="M561.431 376.831C561.348 377.16 561.183 378.48 560.77 380.376C558.541 390.354 550.45 417.319 528.736 414.597C528.736 414.597 528.405 412.288 529.066 408.825C530.139 403.713 533.607 396.209 544.092 389.859C559.697 380.459 561.266 377.408 561.431 376.831Z" fill="#0C8068"/>
<path d="M560.77 378.975C560.77 378.975 549.624 407.836 530.304 413.69" stroke="#0A6D53" stroke-miterlimit="10"/>
<path opacity="0.5" d="M560.77 380.376C558.541 390.354 550.45 417.318 528.736 414.597C528.736 414.597 528.405 412.288 529.066 408.825C547.147 409.815 560.77 380.376 560.77 380.376Z" fill="#0A6D53"/>
<path d="M527.58 415.586C527.002 416.493 519.076 413.194 515.526 403.711C513.379 398.022 512.801 390.023 516.351 379.386C525.681 351.432 521.8 346.154 521.718 345.989C521.883 346.072 529.974 350.112 535.258 359.843C540.955 370.645 543.184 388.374 527.58 415.586Z" fill="#159A7A"/>
<path d="M521.718 345.908C521.718 345.908 533.854 361.246 529.231 390.354C524.607 419.462 527.58 415.587 527.58 415.587" stroke="#0C8068" stroke-miterlimit="10"/>
<path opacity="0.5" d="M527.58 415.587C527.002 416.494 519.076 413.195 515.526 403.713C535.506 409.402 535.258 359.844 535.258 359.844C540.955 370.646 543.184 388.375 527.58 415.587Z" fill="#0C8068"/>
<path d="M542.936 415.174V437.521C542.936 444.036 537.652 449.395 531.047 449.395H520.562C516.268 449.395 512.553 447.087 510.406 443.706C509.333 441.892 508.673 439.83 508.673 437.521V415.174H542.936Z" fill="#DFFFC5"/>
<path d="M544.175 412.288H507.434C506.939 412.288 506.526 412.701 506.526 413.195V414.35C506.526 414.845 506.939 415.257 507.434 415.257H544.175C544.67 415.257 545.083 414.845 545.083 414.35V413.195C545.083 412.618 544.67 412.288 544.175 412.288Z" fill="#DFFFC5"/>
<path d="M542.936 415.174V437.521C542.936 444.036 537.652 449.395 531.047 449.395H520.562C516.268 449.395 512.553 447.087 510.406 443.706C535.506 451.539 540.955 433.151 539.964 425.812C538.973 418.473 529.974 415.174 529.974 415.174H542.936Z" fill="#B7FF7F"/>
</g>
<defs>
<clipPath id="clip0_22_312">
<rect width="565" height="362" fill="white" transform="translate(33.9968 109)"/>
</clipPath>
</defs>
</svg>
