<svg width="133" height="132" viewBox="0 0 133 132" fill="none" xmlns="http://www.w3.org/2000/svg">
<path fill-rule="evenodd" clip-rule="evenodd" d="M78.3958 92.7324C81.9556 91.0344 84.1016 87.592 84.8336 82.405L83.3036 82.8074C82.9551 85.2652 82.1052 86.8164 80.7538 87.461C79.4683 88.0742 78.8356 87.1574 78.8556 84.7107L79.0129 65.5391C79.0429 61.8874 78.325 59.338 76.8595 57.8909C75.3942 56.4073 73.4749 56.2315 71.1017 57.3635L70.3107 57.7408L70.3129 57.4669C73.6162 55.0184 76.0359 52.2274 77.5719 49.094C79.1411 45.9085 79.9467 41.7594 79.9886 36.647C80.0312 31.4615 79.0094 27.9477 76.9232 26.1055C74.8703 24.2111 71.8827 24.1994 67.9603 26.0703L49.3208 34.9609L49.3068 36.6589L53.6577 34.5837L53.1001 102.561L48.7492 104.636L48.7353 106.334L65.8421 98.1746L65.8561 96.4765L61.5052 98.5518L61.8004 62.5639L65.9535 60.5829C67.5356 59.8283 68.7179 59.7918 69.5003 60.4735C70.2827 61.1552 70.6653 62.5368 70.6482 64.6183L70.4968 83.0778C70.4606 87.4964 71.1252 90.5259 72.4907 92.1662C73.8894 93.7542 75.8578 93.943 78.3958 92.7324ZM70.9866 35.3754L70.8707 49.5077C70.8536 51.5892 70.3782 53.5073 69.4445 55.2622C68.5108 57.017 67.3188 58.2403 65.8685 58.932L61.8143 60.8658L62.0628 30.5746L65.9193 28.7352C67.6333 27.9177 68.9124 28.0714 69.7569 29.1964C70.6016 30.2848 71.0115 32.3445 70.9866 35.3754Z" fill="#F6F6FA"/>
<path fill-rule="evenodd" clip-rule="evenodd" d="M42.0352 121.147C36.7311 115.291 33.5 107.523 33.5 99V33C33.5 14.7746 48.2746 0 66.5 0C84.7254 0 99.5 14.7746 99.5 33V99C99.5 117.225 84.7254 132 66.5 132C56.978 132 48.3979 127.967 42.3747 121.516L42.2508 121.578L42.0352 121.147ZM96.9615 94.2227V99C96.9615 115.823 83.3234 129.462 66.5 129.462C57.9812 129.462 50.2791 125.965 44.7509 120.328L96.9615 94.2227ZM96.9615 91.3846L42.9896 118.371C38.647 113.106 36.0385 106.358 36.0385 99V35.6407L86.7798 10.27C93.0279 15.8485 96.9615 23.9649 96.9615 33V91.3846ZM84.575 8.47816L36.0395 32.7459C36.176 16.0395 49.7613 2.53846 66.5 2.53846C73.2672 2.53846 79.5189 4.74513 84.575 8.47816Z" fill="#F6F6FA"/>
</svg>
